<svg width="261" height="310" viewBox="0 0 261 310" fill="none" xmlns="http://www.w3.org/2000/svg">
<path d="M180.627 39.8203C169.179 23.8775 151.387 14.1414 131.927 11.585C92.4133 6.39419 55.3676 31.9053 46.1246 70.6718L17.0407 192.655C7.17996 234.013 28.3168 276.676 68.9675 289.134C136.913 309.957 233.52 327.853 254.527 270.349C282.094 194.889 214.793 87.399 180.627 39.8203Z" fill="#FFFFEB"/>
<path d="M143.554 66.248V66.248C141.396 69.0296 138.207 70.8229 134.709 71.2219L133.824 71.3229L132.826 71.211C129.328 70.819 126.137 69.029 123.979 66.248V66.248" stroke="black" stroke-width="5.79981" stroke-linecap="round"/>
<path d="M56.7033 14.7937C63.8246 15.3883 82.4097 17.2173 89.0906 20.5652C97.4279 24.7432 65.1665 56.4515 65.1665 44.4894C65.1665 35.2122 58.3759 22.3318 55.3276 17.0172C54.7381 15.9893 55.5224 14.6952 56.7033 14.7937Z" fill="#FFFFEB" stroke="#FFFFEB" stroke-width="5.79981" stroke-linecap="round"/>
<path d="M168.056 3.62719L147.812 15.6005L172.575 32.6652L170.239 4.75426C170.15 3.68836 168.977 3.08267 168.056 3.62719Z" fill="#FFFFEB" stroke="#FFFFEB" stroke-width="5.79981" stroke-linecap="round"/>
<rect width="10.8746" height="15.2245" rx="5.43732" transform="matrix(-1 6.79865e-09 6.79865e-09 1 154.733 43.0479)" fill="black"/>
<rect width="10.8746" height="15.2245" rx="5.43732" transform="matrix(-1 6.79865e-09 6.79865e-09 1 124.284 43.0479)" fill="black"/>
<line x1="2.8999" y1="-2.8999" x2="14.3326" y2="-2.8999" transform="matrix(-0.967617 0.252422 0.252422 0.967617 74.6816 68.4229)" stroke="black" stroke-width="5.79981" stroke-linecap="round"/>
<line x1="2.8999" y1="-2.8999" x2="11.9137" y2="-2.8999" transform="matrix(-0.932869 -0.360215 -0.360215 0.932869 72.5508 57.8096)" stroke="black" stroke-width="5.79981" stroke-linecap="round"/>
<line x1="2.8999" y1="-2.8999" x2="13.9253" y2="-2.8999" transform="matrix(0.966003 0.258532 0.258532 -0.966003 183.849 55.373)" stroke="black" stroke-width="5.79981" stroke-linecap="round"/>
<line x1="2.8999" y1="-2.8999" x2="12.2425" y2="-2.8999" transform="matrix(0.963111 -0.269105 -0.269105 -0.963111 177.543 47.124)" stroke="black" stroke-width="5.79981" stroke-linecap="round"/>
</svg>
