<svg width="202" height="174" viewBox="0 0 202 174" fill="none" xmlns="http://www.w3.org/2000/svg">
<g id="Group 77725331">
<path id="Rectangle 3469780" d="M36.6743 42.1342C46.3544 24.619 65.3333 14.7808 85.326 15.6632C108.13 16.6696 128.019 31.4683 135.534 53.0212L172.153 158.034C174.523 164.832 169.855 171.996 162.667 172.411C123.689 174.658 16.8297 178.36 2.80863 152.549C-8.75998 131.253 17.9528 76.009 36.6743 42.1342Z" fill="#FF98F5"/>
<path id="Rectangle 3469964" d="M131.692 142.795C127.295 133.64 131.153 122.653 140.308 118.255L169.166 104.394C178.398 99.9601 189.476 103.85 193.91 113.082C198.201 122.017 194.72 132.781 185.924 137.35C172.916 144.107 166.009 147.217 155.781 151.701C146.669 155.697 136 151.765 131.692 142.795Z" fill="#FF98F5"/>
<path id="Vector 3067" d="M82.5584 7.68402L81.2687 24.1232L56.0353 25.11C66.1513 14.0156 78.6939 8.45189 81.8665 7.16264C82.222 7.01818 82.5884 7.30145 82.5584 7.68402Z" fill="#FF98F5" stroke="#FF98F5" stroke-width="4.21763" stroke-linecap="round"/>
<path id="Vector 3068" d="M131.924 23.2151L112.687 27.3612C112.284 27.448 112.132 27.9425 112.416 28.2406L128.69 45.2959C128.995 45.6149 129.533 45.4415 129.594 45.0049L132.558 23.8035C132.608 23.4406 132.283 23.1379 131.924 23.2151Z" fill="#FF98F5" stroke="#FF98F5" stroke-width="4.21763" stroke-linecap="round"/>
<rect id="Rectangle 3469786" x="2.20248" y="2.01077" width="9.36426" height="13.9902" rx="4.68213" transform="matrix(0.998966 -0.0454589 0.0454509 0.998967 69.6262 72.6696)" stroke="black" stroke-width="4.21763"/>
<path id="Vector 3069" d="M72.249 59.7891L35.2642 59.7891C37.0253 64.8557 40.1703 74.973 52.247 75.4792C64.3237 75.9853 69.4814 65.1825 72.249 59.7891Z" fill="white"/>
<path id="Vector 3072" d="M51.5783 72.7887C47.6873 71.2062 45.4986 63.4629 44.8906 59.7891L60.0899 59.7891C58.8739 64.7817 55.4693 74.3713 51.5783 72.7887Z" fill="black"/>
<path id="Vector 3071" d="M124.179 58.2695L87.9546 60.0429C89.7158 65.1095 92.8607 75.2269 104.937 75.733C117.014 76.2392 121.412 63.663 124.179 58.2695Z" fill="white"/>
<path id="Vector 3073" d="M101.066 73.0413C97.5645 71.4588 94.5814 63.4622 94.0342 59.7884L108.727 59.0283C107.632 64.0209 104.568 74.6239 101.066 73.0413Z" fill="black"/>
</g>
</svg>
