<svg width="165" height="43" viewBox="0 0 165 43" fill="none" xmlns="http://www.w3.org/2000/svg">
<path d="M3.26286 16.6733C3.26286 16.6733 0.996629 13.2546 1.3172 11.7977C1.63776 10.3408 5.15064 14.6097 5.15064 14.6097L3.26286 16.6733Z" fill="#2E142E"/>
<path d="M12.6946 6.64312C12.6946 6.64312 11.6706 2.68863 12.4497 1.41327C13.2333 0.133482 15.1567 5.29248 15.1567 5.29248L12.6946 6.64312Z" fill="#2E142E"/>
<path d="M44.7977 18.3935C44.7977 18.3935 47.8406 15.6397 47.8943 14.1494C47.9479 12.6591 43.4924 15.9307 43.4924 15.9307L44.7977 18.3935Z" fill="#2E142E"/>
<path d="M32.8522 5.43389C32.8522 5.43389 33.8807 1.4794 33.0971 0.20404C32.3179 -1.07575 30.3945 4.08325 30.3945 4.08325L32.8522 5.43389Z" fill="#2E142E"/>
<mask id="mask0_327_6828" style="mask-type:luminance" maskUnits="userSpaceOnUse" x="0" y="2" width="48" height="41">
<path d="M0 2.84839H47.8713V43H0V2.84839Z" fill="white"/>
</mask>
<g mask="url(#mask0_327_6828)">
<path d="M44.8466 15.8678C43.836 14.7784 42.576 14.1318 41.1468 13.8484C40.2608 13.6669 39.2946 13.3879 38.6624 12.7059C37.8298 11.8158 38.0836 10.7088 37.6784 9.65038C36.739 7.20152 34.8111 5.31505 32.398 4.46481C31.4674 4.14154 30.4968 3.97327 29.5084 3.97327C27.7097 3.97327 25.9866 4.51795 24.504 5.4789C23.4399 6.16972 22.0909 6.20957 20.9377 5.6826C19.8113 5.16449 18.578 4.88107 17.2913 4.88107C16.9217 4.88107 16.5522 4.90321 16.1871 4.95193C12.6475 5.40362 9.85591 7.95876 8.78735 11.2889C8.44007 12.3738 7.58078 13.2196 6.47215 13.5385C5.01624 13.9591 3.71617 14.7518 2.67878 15.8678C-0.58922 19.3971 -0.0905617 25.0964 3.7874 28.577C4.77137 29.4627 6.20501 29.7284 6.2718 31.0436C6.34749 32.4695 6.44544 33.2489 7.21569 34.5774C10.3368 39.9313 16.5077 42.6326 22.6563 42.823C28.7515 43.0134 35.4701 40.4538 39.4059 35.7731C40.3409 34.6616 41.218 33.5412 41.2536 32.0887C41.2625 31.606 41.0043 30.6229 41.2759 30.22C41.6721 29.631 43.1503 29.104 43.738 28.577C47.616 25.0964 48.1147 19.3971 44.8466 15.8678Z" fill="#2E142E"/>
</g>
<path d="M29.2006 23.5679C28.2567 21.646 26.1018 20.0208 23.8934 19.9544C21.6094 19.8835 19.2363 21.5929 18.2746 23.5679C17.1437 25.8706 14.6326 26.9777 12.8472 28.6871C12.1037 29.4 11.4804 30.2724 11.556 31.3396C11.7297 33.8771 14.7929 35.489 17.117 34.9886C19.1072 34.5634 20.5186 33.0224 22.4642 32.5176C24.0537 32.1057 25.5853 33.0312 26.9343 33.7353C28.4125 34.5059 29.6013 35.3517 31.3822 35.21C33.172 35.0727 35.1978 34.063 35.7099 32.2474C36.2708 30.268 34.8951 28.8155 33.4303 27.6907C31.8809 26.4995 30.0777 25.3658 29.2006 23.5679Z" fill="#F8B7EB"/>
<path d="M32.6445 14.7738C31.8253 17.0323 29.5813 18.3076 27.6312 17.6257C25.6811 16.9437 24.7684 14.5568 25.5831 12.2984C26.4024 10.0399 28.6463 8.76016 30.5964 9.44212C32.5421 10.1285 33.4593 12.5154 32.6445 14.7738Z" fill="#F8B7EB"/>
<path d="M40.1227 24.6711C38.4264 26.19 36.0221 26.3051 34.7488 24.9323C33.4754 23.5551 33.8138 21.2125 35.5057 19.6936C37.202 18.1703 39.6063 18.0551 40.8796 19.4324C42.153 20.8051 41.8146 23.1521 40.1227 24.6711Z" fill="#F8B7EB"/>
<path d="M13.7257 14.9731C14.0374 17.3511 15.9563 19.0693 18.0089 18.808C20.0614 18.5467 21.4683 16.4078 21.1566 14.0298C20.845 11.6474 18.9305 9.93362 16.878 10.1949C14.8255 10.4517 13.4141 12.595 13.7257 14.9731Z" fill="#F8B7EB"/>
<path d="M7.40826 24.6711C9.10014 26.19 11.5044 26.3051 12.7778 24.9323C14.0511 23.5551 13.7127 21.2125 12.0209 19.6936C10.3245 18.1703 7.92028 18.0551 6.64692 19.4324C5.37356 20.8051 5.71193 23.1521 7.40826 24.6711Z" fill="#F8B7EB"/>
<path d="M28.033 24.4511C27.8009 25.7506 25.7058 26.6844 23.3407 26.5492C20.9755 26.414 19.2451 25.2541 19.4717 23.9608C19.7037 22.6613 21.8043 21.7213 24.1694 21.8565C26.5291 21.9979 28.2595 23.1578 28.033 24.4511Z" fill="#C780C7"/>
<path d="M18.5446 27.3174C19.359 27.6671 18.9263 29.011 17.5805 30.3284C16.2347 31.6458 14.4852 32.4315 13.6724 32.086C12.858 31.7363 13.2891 30.3882 14.6349 29.0708C15.9823 27.7576 17.7318 26.9719 18.5446 27.3174Z" fill="#C780C7"/>
<path d="M34.2935 31.8305C34.0186 32.6556 32.6035 32.3712 31.1235 31.1985C29.6435 30.0258 28.6655 28.408 28.9363 27.585C29.2112 26.7599 30.6305 27.0424 32.1105 28.2151C33.5864 29.3897 34.5644 31.0074 34.2935 31.8305Z" fill="#C780C7"/>
<path d="M65.768 30.764C64.52 30.764 63.36 30.548 62.288 30.116C61.216 29.668 60.272 29.052 59.456 28.268C58.64 27.468 58 26.548 57.536 25.508C57.088 24.452 56.864 23.316 56.864 22.1C56.864 20.884 57.088 19.756 57.536 18.716C58 17.66 58.632 16.74 59.432 15.956C60.232 15.156 61.168 14.54 62.24 14.108C63.328 13.66 64.488 13.436 65.72 13.436C67.112 13.436 68.424 13.716 69.656 14.276C70.888 14.82 71.904 15.588 72.704 16.58L70.28 18.812C69.704 18.092 69.024 17.548 68.24 17.18C67.456 16.812 66.616 16.628 65.72 16.628C64.968 16.628 64.272 16.772 63.632 17.06C62.992 17.332 62.432 17.716 61.952 18.212C61.472 18.692 61.096 19.268 60.824 19.94C60.568 20.596 60.44 21.316 60.44 22.1C60.44 22.884 60.576 23.612 60.848 24.284C61.12 24.956 61.496 25.54 61.976 26.036C62.472 26.516 63.04 26.9 63.68 27.188C64.336 27.46 65.048 27.596 65.816 27.596C66.616 27.596 67.336 27.452 67.976 27.164C68.616 26.86 69.152 26.444 69.584 25.916C70.032 25.372 70.328 24.764 70.472 24.092H65.504V21.068H74.192V22.124C74.192 23.372 73.976 24.524 73.544 25.58C73.128 26.62 72.544 27.532 71.792 28.316C71.04 29.084 70.152 29.684 69.128 30.116C68.104 30.548 66.984 30.764 65.768 30.764ZM89.7667 31.316L88.6387 29.924C88.0627 30.18 87.4547 30.38 86.8147 30.524C86.1747 30.684 85.5027 30.764 84.7987 30.764C83.5507 30.764 82.3907 30.548 81.3187 30.116C80.2467 29.668 79.3027 29.052 78.4867 28.268C77.6867 27.468 77.0547 26.548 76.5907 25.508C76.1427 24.452 75.9187 23.316 75.9187 22.1C75.9187 20.884 76.1427 19.756 76.5907 18.716C77.0547 17.66 77.6867 16.74 78.4867 15.956C79.3027 15.156 80.2467 14.54 81.3187 14.108C82.3907 13.66 83.5507 13.436 84.7987 13.436C86.0467 13.436 87.2067 13.66 88.2787 14.108C89.3667 14.54 90.3107 15.156 91.1107 15.956C91.9267 16.74 92.5587 17.66 93.0067 18.716C93.4547 19.756 93.6787 20.884 93.6787 22.1C93.6787 23.3 93.4467 24.428 92.9827 25.484C92.5347 26.524 91.9187 27.436 91.1347 28.22L92.8147 30.308L89.7667 31.316ZM84.7987 27.572C85.1187 27.572 85.4147 27.548 85.6867 27.5C85.9747 27.436 86.2467 27.348 86.5027 27.236L84.7027 24.98L87.7267 23.972L88.9747 25.508C89.3427 25.044 89.6227 24.524 89.8147 23.948C90.0227 23.372 90.1267 22.756 90.1267 22.1C90.1267 21.316 89.9907 20.596 89.7187 19.94C89.4467 19.268 89.0707 18.692 88.5907 18.212C88.1107 17.716 87.5507 17.332 86.9107 17.06C86.2707 16.772 85.5667 16.628 84.7987 16.628C84.0467 16.628 83.3427 16.772 82.6867 17.06C82.0467 17.332 81.4867 17.716 81.0067 18.212C80.5427 18.692 80.1747 19.268 79.9027 19.94C79.6307 20.596 79.4947 21.316 79.4947 22.1C79.4947 22.868 79.6307 23.588 79.9027 24.26C80.1747 24.932 80.5427 25.516 81.0067 26.012C81.4867 26.492 82.0467 26.876 82.6867 27.164C83.3427 27.436 84.0467 27.572 84.7987 27.572ZM105.502 30.5V16.772H99.8383V13.7H114.622V16.772H108.982V30.5H105.502ZM116.575 30.5V13.7H129.487V16.724H120.055V20.564H126.271V23.492H120.055V27.476H129.583V30.5H116.575ZM139.339 30.74C138.091 30.74 136.923 30.524 135.835 30.092C134.747 29.644 133.795 29.028 132.979 28.244C132.179 27.46 131.547 26.548 131.083 25.508C130.635 24.452 130.411 23.316 130.411 22.1C130.411 20.868 130.635 19.732 131.083 18.692C131.547 17.636 132.187 16.716 133.003 15.932C133.819 15.148 134.763 14.54 135.835 14.108C136.923 13.66 138.091 13.436 139.339 13.436C140.267 13.436 141.163 13.564 142.027 13.82C142.891 14.076 143.691 14.436 144.427 14.9C145.179 15.364 145.819 15.924 146.347 16.58L143.995 18.908C143.387 18.156 142.683 17.588 141.883 17.204C141.099 16.82 140.251 16.628 139.339 16.628C138.587 16.628 137.883 16.772 137.227 17.06C136.571 17.332 136.003 17.716 135.523 18.212C135.043 18.692 134.667 19.268 134.395 19.94C134.123 20.596 133.987 21.316 133.987 22.1C133.987 22.868 134.123 23.588 134.395 24.26C134.667 24.916 135.051 25.492 135.547 25.988C136.043 26.468 136.619 26.844 137.275 27.116C137.947 27.388 138.675 27.524 139.459 27.524C140.339 27.524 141.163 27.34 141.931 26.972C142.699 26.604 143.379 26.076 143.971 25.388L146.251 27.644C145.723 28.284 145.091 28.836 144.355 29.3C143.619 29.764 142.819 30.124 141.955 30.38C141.107 30.62 140.235 30.74 139.339 30.74ZM148.285 30.5V13.7H151.765V20.468H159.493V13.7H162.973V30.5H159.493V23.612H151.765V30.5H148.285Z" fill="#F18FDB"/>
</svg>
