<svg width="1080" height="720" viewBox="0 0 1080 720" fill="none" xmlns="http://www.w3.org/2000/svg">
<g clip-path="url(#clip0_559_9802)">
<g clip-path="url(#clip1_559_9802)">
<path d="M40 378C40 376.895 40.8954 376 42 376H54C55.1046 376 56 376.895 56 378V390C56 391.105 55.1046 392 54 392H42C40.8954 392 40 391.105 40 390V378Z" fill="#F18FDB"/>
<path fill-rule="evenodd" clip-rule="evenodd" d="M53 381.523C50.7365 382.699 48.3779 385.527 47.1887 387.587C47.0539 387.82 46.8198 387.972 46.5588 387.997C46.2978 388.021 46.0414 387.914 45.8689 387.709L43 384.303L44.2338 383.181L46.3885 385.74C47.771 383.669 49.9838 381.186 52.2669 380L53 381.523Z" fill="white"/>
</g>
<path d="M65.136 389V377.8H66.816V382.984L72.24 377.8H74.368L68.544 383.224L74.544 389H72.24L66.816 383.688V389H65.136ZM78.5199 389.144C77.7199 389.144 76.9945 388.957 76.3439 388.584C75.7039 388.211 75.1919 387.704 74.8079 387.064C74.4345 386.424 74.2479 385.709 74.2479 384.92C74.2479 384.141 74.4292 383.437 74.7919 382.808C75.1545 382.168 75.6452 381.661 76.2639 381.288C76.8825 380.904 77.5705 380.712 78.3279 380.712C79.0852 380.712 79.7572 380.904 80.3439 381.288C80.9305 381.661 81.3945 382.173 81.7359 382.824C82.0879 383.464 82.2639 384.189 82.2639 385V385.448H75.8479C75.9332 385.896 76.0985 386.296 76.3439 386.648C76.5999 387 76.9199 387.277 77.3039 387.48C77.6985 387.683 78.1252 387.784 78.5839 387.784C78.9785 387.784 79.3572 387.725 79.7199 387.608C80.0932 387.48 80.4025 387.299 80.6479 387.064L81.6719 388.072C81.1919 388.435 80.6959 388.707 80.1839 388.888C79.6825 389.059 79.1279 389.144 78.5199 389.144ZM75.8639 384.248H80.6799C80.6159 383.821 80.4665 383.448 80.2319 383.128C80.0079 382.797 79.7252 382.541 79.3839 382.36C79.0532 382.168 78.6905 382.072 78.2959 382.072C77.8905 382.072 77.5172 382.163 77.1759 382.344C76.8345 382.525 76.5465 382.781 76.3119 383.112C76.0879 383.432 75.9385 383.811 75.8639 384.248ZM87.723 389.144C86.923 389.144 86.1977 388.957 85.547 388.584C84.907 388.211 84.395 387.704 84.011 387.064C83.6377 386.424 83.451 385.709 83.451 384.92C83.451 384.141 83.6323 383.437 83.995 382.808C84.3577 382.168 84.8483 381.661 85.467 381.288C86.0857 380.904 86.7737 380.712 87.531 380.712C88.2883 380.712 88.9603 380.904 89.547 381.288C90.1337 381.661 90.5977 382.173 90.939 382.824C91.291 383.464 91.467 384.189 91.467 385V385.448H85.051C85.1363 385.896 85.3017 386.296 85.547 386.648C85.803 387 86.123 387.277 86.507 387.48C86.9017 387.683 87.3283 387.784 87.787 387.784C88.1817 387.784 88.5603 387.725 88.923 387.608C89.2963 387.48 89.6057 387.299 89.851 387.064L90.875 388.072C90.395 388.435 89.899 388.707 89.387 388.888C88.8857 389.059 88.331 389.144 87.723 389.144ZM85.067 384.248H89.883C89.819 383.821 89.6697 383.448 89.435 383.128C89.211 382.797 88.9283 382.541 88.587 382.36C88.2563 382.168 87.8937 382.072 87.499 382.072C87.0937 382.072 86.7203 382.163 86.379 382.344C86.0377 382.525 85.7497 382.781 85.515 383.112C85.291 383.432 85.1417 383.811 85.067 384.248ZM92.9909 392.264V380.856H94.5749V381.64C95.2575 381.032 96.0895 380.728 97.0709 380.728C97.8389 380.728 98.5322 380.915 99.1509 381.288C99.7802 381.661 100.276 382.163 100.639 382.792C101.002 383.421 101.183 384.131 101.183 384.92C101.183 385.709 100.996 386.424 100.623 387.064C100.26 387.693 99.7642 388.195 99.1349 388.568C98.5162 388.941 97.8175 389.128 97.0389 389.128C96.5909 389.128 96.1589 389.059 95.7429 388.92C95.3269 388.771 94.9429 388.563 94.5909 388.296V392.264H92.9909ZM96.8629 387.736C97.3855 387.736 97.8495 387.613 98.2549 387.368C98.6709 387.123 99.0015 386.792 99.2469 386.376C99.4922 385.949 99.6149 385.469 99.6149 384.936C99.6149 384.403 99.4922 383.923 99.2469 383.496C99.0015 383.069 98.6709 382.733 98.2549 382.488C97.8495 382.243 97.3855 382.12 96.8629 382.12C96.4042 382.12 95.9775 382.205 95.5829 382.376C95.1882 382.547 94.8575 382.787 94.5909 383.096V386.776C94.8575 387.075 95.1882 387.309 95.5829 387.48C95.9882 387.651 96.4149 387.736 96.8629 387.736ZM106.245 389V377.8H108.501L112.005 384.968L115.509 377.8H117.749V389H116.165V379.848L111.989 388.2L107.813 379.848V389H106.245ZM123.739 389.144C122.939 389.144 122.213 388.957 121.563 388.584C120.923 388.211 120.411 387.704 120.027 387.064C119.653 386.424 119.467 385.709 119.467 384.92C119.467 384.141 119.648 383.437 120.011 382.808C120.373 382.168 120.864 381.661 121.483 381.288C122.101 380.904 122.789 380.712 123.547 380.712C124.304 380.712 124.976 380.904 125.563 381.288C126.149 381.661 126.613 382.173 126.955 382.824C127.307 383.464 127.483 384.189 127.483 385V385.448H121.067C121.152 385.896 121.317 386.296 121.563 386.648C121.819 387 122.139 387.277 122.523 387.48C122.917 387.683 123.344 387.784 123.803 387.784C124.197 387.784 124.576 387.725 124.939 387.608C125.312 387.48 125.621 387.299 125.867 387.064L126.891 388.072C126.411 388.435 125.915 388.707 125.403 388.888C124.901 389.059 124.347 389.144 123.739 389.144ZM121.083 384.248H125.899C125.835 383.821 125.685 383.448 125.451 383.128C125.227 382.797 124.944 382.541 124.603 382.36C124.272 382.168 123.909 382.072 123.515 382.072C123.109 382.072 122.736 382.163 122.395 382.344C122.053 382.525 121.765 382.781 121.531 383.112C121.307 383.432 121.157 383.811 121.083 384.248ZM136.334 389.16C135.438 389.16 134.574 388.984 133.742 388.632C132.91 388.28 132.174 387.784 131.534 387.144L132.558 385.96C133.166 386.557 133.785 387 134.414 387.288C135.054 387.576 135.721 387.72 136.414 387.72C136.958 387.72 137.433 387.645 137.838 387.496C138.254 387.336 138.574 387.112 138.798 386.824C139.022 386.536 139.134 386.211 139.134 385.848C139.134 385.347 138.958 384.963 138.606 384.696C138.254 384.429 137.673 384.227 136.862 384.088L134.99 383.784C133.966 383.603 133.198 383.272 132.686 382.792C132.185 382.312 131.934 381.672 131.934 380.872C131.934 380.232 132.105 379.672 132.446 379.192C132.788 378.701 133.268 378.323 133.886 378.056C134.516 377.789 135.241 377.656 136.062 377.656C136.873 377.656 137.668 377.789 138.446 378.056C139.236 378.312 139.945 378.685 140.574 379.176L139.646 380.456C138.441 379.539 137.22 379.08 135.982 379.08C135.492 379.08 135.065 379.149 134.702 379.288C134.34 379.427 134.057 379.624 133.854 379.88C133.652 380.125 133.55 380.413 133.55 380.744C133.55 381.203 133.705 381.555 134.014 381.8C134.324 382.035 134.836 382.205 135.55 382.312L137.358 382.616C138.542 382.808 139.412 383.155 139.966 383.656C140.521 384.157 140.798 384.845 140.798 385.72C140.798 386.403 140.612 387.005 140.238 387.528C139.865 388.04 139.342 388.44 138.67 388.728C137.998 389.016 137.22 389.16 136.334 389.16ZM142.163 389V380.856H143.763V389H142.163ZM142.963 379.544C142.696 379.544 142.467 379.448 142.275 379.256C142.083 379.053 141.987 378.819 141.987 378.552C141.987 378.275 142.083 378.045 142.275 377.864C142.467 377.672 142.696 377.576 142.963 377.576C143.24 377.576 143.475 377.672 143.667 377.864C143.859 378.045 143.955 378.275 143.955 378.552C143.955 378.819 143.859 379.053 143.667 379.256C143.475 379.448 143.24 379.544 142.963 379.544ZM149.679 392.424C149.082 392.424 148.5 392.355 147.935 392.216C147.37 392.077 146.858 391.88 146.399 391.624L147.007 390.376C147.487 390.621 147.935 390.797 148.351 390.904C148.778 391.021 149.204 391.08 149.631 391.08C150.346 391.08 150.884 390.915 151.247 390.584C151.62 390.253 151.807 389.768 151.807 389.128V388.2C151.092 388.765 150.276 389.048 149.359 389.048C148.612 389.048 147.924 388.867 147.295 388.504C146.676 388.131 146.186 387.629 145.823 387C145.46 386.36 145.279 385.656 145.279 384.888C145.279 384.109 145.46 383.405 145.823 382.776C146.196 382.136 146.692 381.635 147.311 381.272C147.94 380.899 148.644 380.712 149.423 380.712C149.86 380.712 150.282 380.787 150.687 380.936C151.103 381.075 151.482 381.277 151.823 381.544V380.856H153.407V389.128C153.407 390.184 153.082 390.995 152.431 391.56C151.791 392.136 150.874 392.424 149.679 392.424ZM149.567 387.672C150.036 387.672 150.463 387.592 150.847 387.432C151.231 387.261 151.551 387.021 151.807 386.712V383.064C151.551 382.765 151.226 382.531 150.831 382.36C150.447 382.189 150.026 382.104 149.567 382.104C149.055 382.104 148.591 382.227 148.175 382.472C147.77 382.717 147.444 383.053 147.199 383.48C146.964 383.896 146.847 384.365 146.847 384.888C146.847 385.411 146.964 385.885 147.199 386.312C147.444 386.728 147.77 387.059 148.175 387.304C148.591 387.549 149.055 387.672 149.567 387.672ZM155.288 389V380.856H156.888V381.688C157.517 381.027 158.333 380.696 159.336 380.696C159.965 380.696 160.514 380.829 160.984 381.096C161.464 381.363 161.837 381.736 162.104 382.216C162.381 382.696 162.52 383.251 162.52 383.88V389H160.92V384.152C160.92 383.512 160.738 383.011 160.376 382.648C160.024 382.275 159.528 382.088 158.888 382.088C158.461 382.088 158.077 382.179 157.736 382.36C157.394 382.541 157.112 382.803 156.888 383.144V389H155.288ZM168.27 389.144C167.47 389.144 166.745 388.957 166.094 388.584C165.454 388.211 164.942 387.704 164.558 387.064C164.185 386.424 163.998 385.709 163.998 384.92C163.998 384.141 164.179 383.437 164.542 382.808C164.905 382.168 165.395 381.661 166.014 381.288C166.633 380.904 167.321 380.712 168.078 380.712C168.835 380.712 169.507 380.904 170.094 381.288C170.681 381.661 171.145 382.173 171.486 382.824C171.838 383.464 172.014 384.189 172.014 385V385.448H165.598C165.683 385.896 165.849 386.296 166.094 386.648C166.35 387 166.67 387.277 167.054 387.48C167.449 387.683 167.875 387.784 168.334 387.784C168.729 387.784 169.107 387.725 169.47 387.608C169.843 387.48 170.153 387.299 170.398 387.064L171.422 388.072C170.942 388.435 170.446 388.707 169.934 388.888C169.433 389.059 168.878 389.144 168.27 389.144ZM165.614 384.248H170.43C170.366 383.821 170.217 383.448 169.982 383.128C169.758 382.797 169.475 382.541 169.134 382.36C168.803 382.168 168.441 382.072 168.046 382.072C167.641 382.072 167.267 382.163 166.926 382.344C166.585 382.525 166.297 382.781 166.062 383.112C165.838 383.432 165.689 383.811 165.614 384.248ZM177.313 389.128C176.556 389.128 175.862 388.941 175.233 388.568C174.604 388.195 174.108 387.693 173.745 387.064C173.382 386.424 173.201 385.709 173.201 384.92C173.201 384.131 173.382 383.421 173.745 382.792C174.118 382.163 174.62 381.661 175.249 381.288C175.878 380.915 176.577 380.728 177.345 380.728C177.793 380.728 178.225 380.797 178.641 380.936C179.057 381.075 179.441 381.277 179.793 381.544V377.8L181.393 377.496V389H179.809V388.216C179.116 388.824 178.284 389.128 177.313 389.128ZM177.521 387.736C177.99 387.736 178.417 387.651 178.801 387.48C179.196 387.309 179.526 387.064 179.793 386.744V383.08C179.526 382.781 179.196 382.547 178.801 382.376C178.417 382.195 177.99 382.104 177.521 382.104C177.009 382.104 176.545 382.227 176.129 382.472C175.713 382.717 175.382 383.053 175.137 383.48C174.892 383.896 174.769 384.371 174.769 384.904C174.769 385.437 174.892 385.917 175.137 386.344C175.382 386.771 175.713 387.112 176.129 387.368C176.545 387.613 177.009 387.736 177.521 387.736ZM186.824 389V377.8H188.504V389H186.824ZM190.6 389V380.856H192.2V381.688C192.83 381.027 193.646 380.696 194.648 380.696C195.278 380.696 195.827 380.829 196.296 381.096C196.776 381.363 197.15 381.736 197.416 382.216C197.694 382.696 197.832 383.251 197.832 383.88V389H196.232V384.152C196.232 383.512 196.051 383.011 195.688 382.648C195.336 382.275 194.84 382.088 194.2 382.088C193.774 382.088 193.39 382.179 193.048 382.36C192.707 382.541 192.424 382.803 192.2 383.144V389H190.6Z" fill="black"/>
<g filter="url(#filter0_b_559_9802)">
<rect width="1080" height="720" fill="white" fill-opacity="0.7"/>
</g>
<path d="M816 332L819.511 347.328L829 353L819.511 358.672L816 374L812.489 358.672L803 353L812.489 347.328L816 332Z" fill="#D075D2"/>
<path d="M795.5 516L801.037 540.087L816 549L801.037 557.913L795.5 582L789.963 557.913L775 549L789.963 540.087L795.5 516Z" fill="#FFE6FB"/>
<path d="M376 618L382.212 645.372L399 655.5L382.212 665.628L376 693L369.788 665.628L353 655.5L369.788 645.372L376 618Z" fill="#FFBEF5"/>
<path d="M168.511 720C159.841 678.454 168.713 649.443 179.032 626.148C199.767 579.339 248.313 595.632 231.016 626.148C213.718 656.664 190.164 622.277 198.891 590.297C212.797 539.336 304.902 500.4 349 492.641M349 492.641L322.5 476M349 492.641L333 520.128" stroke="#FF98F5" stroke-width="8" stroke-linecap="round"/>
<path d="M-8.02725 278.337C28.9785 252.958 76.3184 250.273 117.105 268.98C177.564 296.711 208.815 364.347 190.747 428.361L91.2587 780.838C91.2587 780.838 -467.814 775.629 -344.438 590.487C-257.289 459.708 -95.5155 338.337 -8.02725 278.337Z" fill="#75CDFF"/>
<path d="M217.27 318.6L174.646 313.408L194.272 363.999L218.76 321.585C219.477 320.343 218.693 318.773 217.27 318.6Z" fill="#75CDFF" stroke="#75CDFF" stroke-width="8" stroke-linecap="round"/>
<path d="M43.1966 217.971L67.1737 256.554L12.6848 264.932L39.7658 218.027C40.5213 216.718 42.3991 216.688 43.1966 217.971Z" fill="#75CDFF" stroke="#75CDFF" stroke-width="8" stroke-linecap="round"/>
<rect x="28.4277" y="314.665" width="43" height="20" rx="10" transform="rotate(30 28.4277 314.665)" fill="black"/>
<rect x="89.0488" y="349.665" width="43" height="20" rx="10" transform="rotate(30 89.0488 349.665)" fill="black"/>
<path d="M26.5039 381.998C26.5039 381.998 34.6806 387.571 43.4169 385.23C52.1532 382.889 56.9306 373.845 56.9306 373.845" stroke="black" stroke-width="8" stroke-linecap="round"/>
<path d="M65.123 404.339C65.123 404.339 56.2078 400.045 53.8669 391.309C51.526 382.572 56.9702 373.913 56.9702 373.913" stroke="black" stroke-width="8" stroke-linecap="round"/>
<path d="M635.863 603.547C651.654 581.556 676.195 568.126 703.038 564.6C757.541 557.44 808.64 592.629 821.39 646.102L861.507 814.36C875.108 871.407 845.953 930.255 789.881 947.439C696.16 976.161 562.905 1000.85 533.928 921.527C495.904 817.442 588.737 669.175 635.863 603.547Z" fill="#FFFFEB"/>
<path d="M687 640V640C689.977 643.837 694.376 646.31 699.2 646.861L700.421 647L701.798 646.846C706.623 646.305 711.024 643.836 714 640V640" stroke="black" stroke-width="8" stroke-linecap="round"/>
<path d="M806.796 569.026C796.973 569.847 771.338 572.369 762.122 576.987C750.622 582.75 795.122 626.487 795.122 609.987C795.122 597.191 804.489 579.424 808.694 572.093C809.507 570.676 808.425 568.89 806.796 569.026Z" fill="#FFFFEB" stroke="#FFFFEB" stroke-width="8" stroke-linecap="round"/>
<path d="M653.202 553.623L681.126 570.139L646.969 593.677L650.191 555.178C650.314 553.708 651.932 552.872 653.202 553.623Z" fill="#FFFFEB" stroke="#FFFFEB" stroke-width="8" stroke-linecap="round"/>
<rect x="671.58" y="608" width="15" height="21" rx="7.5" fill="black"/>
<rect x="713.58" y="608" width="15" height="21" rx="7.5" fill="black"/>
<line x1="786.88" y1="640.139" x2="802.139" y2="644.12" stroke="black" stroke-width="8" stroke-linecap="round"/>
<line x1="787.228" y1="623.188" x2="798.827" y2="618.709" stroke="black" stroke-width="8" stroke-linecap="round"/>
<line x1="628.588" y1="629.898" x2="613.897" y2="633.83" stroke="black" stroke-width="8" stroke-linecap="round"/>
<line x1="635.188" y1="616.397" x2="622.777" y2="612.929" stroke="black" stroke-width="8" stroke-linecap="round"/>
<path d="M856.733 621.676C855.964 581.71 878.973 545.736 914.439 527.295C954.15 506.646 1002.36 511.765 1036.85 540.293L1231.14 701C1231.14 701 968.419 880.183 907.788 843.048C867.135 818.149 858.205 698.09 856.733 621.676Z" fill="#FF98F5"/>
<path d="M900.676 515.901L914.721 545.328L872.562 571.917C878.924 542.886 894.95 520.954 899.042 515.702C899.49 515.128 900.362 515.244 900.676 515.901Z" fill="#FF98F5" stroke="#FF98F5" stroke-width="8" stroke-linecap="round"/>
<path d="M1000.45 493.747L971.566 519.906C970.986 520.431 971.206 521.387 971.956 521.607L1016.75 534.741C1017.56 534.977 1018.28 534.182 1017.96 533.406L1002.05 494.113C1001.79 493.469 1000.97 493.28 1000.45 493.747Z" fill="#FF98F5" stroke="#FF98F5" stroke-width="8" stroke-linecap="round"/>
<rect x="948.3" y="640.745" width="18.8077" height="27.9351" rx="9.40385" transform="rotate(-32.6053 948.3 640.745)" stroke="black" stroke-width="8"/>
<path d="M935.9 623.62L872.68 660.12C880.69 667.041 896.05 681.23 917.192 670.177C938.335 659.124 936.491 635.569 935.9 623.62Z" fill="white"/>
<path d="M913.392 666.239C905.18 667.374 893.797 656.299 889.133 650.62L915.114 635.62C917.962 645.353 921.605 665.103 913.392 666.239Z" fill="black"/>
<path d="M1023.17 569.771L962.996 608.553C971.006 615.474 986.366 629.663 1007.51 618.61C1028.65 607.557 1023.76 581.721 1023.17 569.771Z" fill="white"/>
<path d="M998.237 617.831C990.69 618.582 977.699 607.859 973.139 602.119L997.503 586.32C1000.56 595.934 1005.78 617.08 998.237 617.831Z" fill="black"/>
<path d="M136.571 358.025L132.405 371.748L137.437 380.621L127.237 380.7L117.435 391.169L121.601 377.446L116.569 368.573L126.769 368.494L136.571 358.025Z" fill="white"/>
</g>
<defs>
<filter id="filter0_b_559_9802" x="-23" y="-23" width="1126" height="766" filterUnits="userSpaceOnUse" color-interpolation-filters="sRGB">
<feFlood flood-opacity="0" result="BackgroundImageFix"/>
<feGaussianBlur in="BackgroundImageFix" stdDeviation="11.5"/>
<feComposite in2="SourceAlpha" operator="in" result="effect1_backgroundBlur_559_9802"/>
<feBlend mode="normal" in="SourceGraphic" in2="effect1_backgroundBlur_559_9802" result="shape"/>
</filter>
<clipPath id="clip0_559_9802">
<rect width="1080" height="720" rx="24" fill="white"/>
</clipPath>
<clipPath id="clip1_559_9802">
<rect x="40" y="376" width="16" height="16" rx="2" fill="white"/>
</clipPath>
</defs>
</svg>
