<svg width="24" height="24" viewBox="0 0 24 24" fill="none" xmlns="http://www.w3.org/2000/svg">
<path fill-rule="evenodd" clip-rule="evenodd" d="M4.75 3C3.7835 3 3 3.7835 3 4.75V19.25C3 20.2165 3.7835 21 4.75 21H11.25C12.2165 21 13 20.2165 13 19.25V16H11.5V19.25C11.5 19.3881 11.3881 19.5 11.25 19.5H4.75C4.61193 19.5 4.5 19.3881 4.5 19.25V4.75C4.5 4.61193 4.61193 4.5 4.75 4.5H11.25C11.3881 4.5 11.5 4.61193 11.5 4.75V8H13V4.75C13 3.7835 12.2165 3 11.25 3H4.75ZM20.8232 10.7626L16.5303 6.46967L15.4697 7.53033L19.1893 11.25H8V12.75H19.1893L15.4697 16.4697L16.5303 17.5303L20.8232 13.2374C21.5066 12.554 21.5066 11.446 20.8232 10.7626Z" fill="#100B1F"/>
</svg>
