<svg width="24" height="24" viewBox="0 0 24 24" fill="none" xmlns="http://www.w3.org/2000/svg">
<g id="icon24_feedback">
<path id="Union" fill-rule="evenodd" clip-rule="evenodd" d="M3.75 11.5H5V16.5H3.75C3.61193 16.5 3.5 16.3881 3.5 16.25V11.75C3.5 11.6119 3.61193 11.5 3.75 11.5ZM3.75 18H5.10002C5.56329 20.2822 7.58104 22 10 22V20.5C8.067 20.5 6.5 18.933 6.5 17V10.75V10.25C6.5 7.21243 8.96243 4.75 12 4.75C15.0376 4.75 17.5 7.21243 17.5 10.25V10.75V17V17.25V18H18.25H20.25C21.2165 18 22 17.2165 22 16.25V11.75C22 10.7835 21.2165 10 20.25 10H18.9956C18.864 6.2498 15.7823 3.25 12 3.25C8.21769 3.25 5.13602 6.2498 5.00438 10H3.75C2.7835 10 2 10.7835 2 11.75V16.25C2 17.2165 2.7835 18 3.75 18ZM19 11.5V16.5H20.25C20.3881 16.5 20.5 16.3881 20.5 16.25V11.75C20.5 11.6119 20.3881 11.5 20.25 11.5H19ZM14 22H11V20.5H14V22Z" fill="black"/>
</g>
</svg>
