<svg width="24" height="24" viewBox="0 0 24 24" fill="none" xmlns="http://www.w3.org/2000/svg">
<path fill-rule="evenodd" clip-rule="evenodd" d="M7.5 8.25C7.5 5.76472 9.51472 3.75 12 3.75C14.4853 3.75 16.5 5.76472 16.5 8.25C16.5 10.7353 14.4853 12.75 12 12.75C9.51472 12.75 7.5 10.7353 7.5 8.25ZM12 2.25C8.68629 2.25 6 4.93629 6 8.25C6 11.5637 8.68629 14.25 12 14.25C15.3137 14.25 18 11.5637 18 8.25C18 4.93629 15.3137 2.25 12 2.25ZM8.22141 17.0663C8.26759 17.0237 8.32814 17 8.39098 17H15.609C15.6719 17 15.7324 17.0237 15.7786 17.0663L18.4196 19.5041C18.4708 19.5515 18.5 19.6181 18.5 19.6878V21H20V19.6878C20 19.1994 19.7959 18.7332 19.437 18.4019L16.796 15.9641C16.4727 15.6657 16.0489 15.5 15.609 15.5H8.39098C7.95105 15.5 7.52726 15.6657 7.20399 15.9641L4.56301 18.4019C4.20412 18.7332 4 19.1994 4 19.6878V21H5.5V19.6878C5.5 19.6181 5.52916 19.5515 5.58043 19.5041L8.22141 17.0663Z" fill="#100B1F"/>
</svg>
