<svg width="24" height="24" viewBox="0 0 24 24" fill="none" xmlns="http://www.w3.org/2000/svg">
<g filter="url(#filter0_ii_687_1203)">
<path d="M12.032 1.79199C17.7105 1.79199 22.272 6.39999 22.272 12.032C22.272 15.2277 20.8433 18.0547 18.5822 19.9169C18.5608 19.9346 18.5483 19.9608 18.5483 19.9885V21.3411C18.5483 21.8065 18.0829 22.272 17.6174 22.272H11.6131C6.16723 22.0392 1.79199 17.5243 1.79199 12.032C1.79199 6.39999 6.35345 1.79199 12.032 1.79199H12.032ZM16.128 9.98398C15.5681 9.98398 15.1131 10.4333 15.1041 10.991L15.104 11.008C15.104 12.7046 13.7286 14.08 12.032 14.08C10.3353 14.08 8.95995 12.7046 8.95995 11.008L8.95981 10.991C8.95079 10.4333 8.49584 9.98398 7.93597 9.98398C7.37042 9.98398 6.91196 10.4424 6.91196 11.008C6.91196 11.014 6.91201 11.02 6.91198 11.0261C6.92173 13.8455 9.21029 16.128 12.032 16.128C14.8597 16.128 17.152 13.8357 17.152 11.008L17.1518 10.991C17.1428 10.4333 16.6878 9.98398 16.128 9.98398Z" fill="url(#paint0_linear_687_1203)"/>
</g>
<path d="M12.032 1.79199C17.7105 1.79199 22.272 6.39999 22.272 12.032C22.272 15.2277 20.8433 18.0547 18.5822 19.9169C18.5608 19.9346 18.5483 19.9608 18.5483 19.9885V21.3411C18.5483 21.8065 18.0829 22.272 17.6174 22.272H11.6131C6.16723 22.0392 1.79199 17.5243 1.79199 12.032C1.79199 6.39999 6.35345 1.79199 12.032 1.79199H12.032ZM16.128 9.98398C15.5681 9.98398 15.1131 10.4333 15.1041 10.991L15.104 11.008C15.104 12.7046 13.7286 14.08 12.032 14.08C10.3353 14.08 8.95995 12.7046 8.95995 11.008L8.95981 10.991C8.95079 10.4333 8.49584 9.98398 7.93597 9.98398C7.37042 9.98398 6.91196 10.4424 6.91196 11.008C6.91196 11.014 6.91201 11.02 6.91198 11.0261C6.92173 13.8455 9.21029 16.128 12.032 16.128C14.8597 16.128 17.152 13.8357 17.152 11.008L17.1518 10.991C17.1428 10.4333 16.6878 9.98398 16.128 9.98398Z" stroke="white" stroke-opacity="0.2" stroke-width="0.0923078"/>
<g filter="url(#filter1_bdii_687_1203)">
<path d="M3.13988 3.00415C3.12821 2.94076 3.18345 2.88522 3.2469 2.89657L7.43314 3.64487C7.50645 3.65797 7.53486 3.74803 7.48234 3.80083L4.06635 7.23478C4.01383 7.28758 3.92362 7.25965 3.91013 7.1864L3.13988 3.00415Z" fill="url(#paint1_linear_687_1203)" fill-opacity="0.2" style="mix-blend-mode:hard-light" shape-rendering="crispEdges"/>
<path d="M3.13988 3.00415C3.12821 2.94076 3.18345 2.88522 3.2469 2.89657L7.43314 3.64487C7.50645 3.65797 7.53486 3.74803 7.48234 3.80083L4.06635 7.23478C4.01383 7.28758 3.92362 7.25965 3.91013 7.1864L3.13988 3.00415Z" stroke="white" stroke-opacity="0.2" stroke-width="0.0923078" shape-rendering="crispEdges"/>
</g>
<g filter="url(#filter2_bdii_687_1203)">
<path d="M20.8601 3.00415C20.8718 2.94076 20.8165 2.88522 20.7531 2.89657L16.5669 3.64487C16.4935 3.65797 16.4651 3.74803 16.5177 3.80083L19.9336 7.23478C19.9862 7.28758 20.0764 7.25965 20.0899 7.1864L20.8601 3.00415Z" fill="url(#paint2_linear_687_1203)" fill-opacity="0.2" style="mix-blend-mode:hard-light" shape-rendering="crispEdges"/>
<path d="M20.8601 3.00415C20.8718 2.94076 20.8165 2.88522 20.7531 2.89657L16.5669 3.64487C16.4935 3.65797 16.4651 3.74803 16.5177 3.80083L19.9336 7.23478C19.9862 7.28758 20.0764 7.25965 20.0899 7.1864L20.8601 3.00415Z" stroke="white" stroke-opacity="0.2" stroke-width="0.0923078" shape-rendering="crispEdges"/>
</g>
<defs>
<filter id="filter0_ii_687_1203" x="1.56148" y="1.56099" width="20.9415" height="20.942" filterUnits="userSpaceOnUse" color-interpolation-filters="sRGB">
<feFlood flood-opacity="0" result="BackgroundImageFix"/>
<feBlend mode="normal" in="SourceGraphic" in2="BackgroundImageFix" result="shape"/>
<feColorMatrix in="SourceAlpha" type="matrix" values="0 0 0 0 0 0 0 0 0 0 0 0 0 0 0 0 0 0 127 0" result="hardAlpha"/>
<feOffset dx="0.184616" dy="0.184616"/>
<feGaussianBlur stdDeviation="0.138462"/>
<feComposite in2="hardAlpha" operator="arithmetic" k2="-1" k3="1"/>
<feColorMatrix type="matrix" values="0 0 0 0 1 0 0 0 0 1 0 0 0 0 1 0 0 0 1 0"/>
<feBlend mode="overlay" in2="shape" result="effect1_innerShadow_687_1203"/>
<feColorMatrix in="SourceAlpha" type="matrix" values="0 0 0 0 0 0 0 0 0 0 0 0 0 0 0 0 0 0 127 0" result="hardAlpha"/>
<feOffset dx="-0.184616" dy="-0.184616"/>
<feGaussianBlur stdDeviation="0.184616"/>
<feComposite in2="hardAlpha" operator="arithmetic" k2="-1" k3="1"/>
<feColorMatrix type="matrix" values="0 0 0 0 0.394957 0 0 0 0 0.0690799 0 0 0 0 0.720833 0 0 0 0.2 0"/>
<feBlend mode="multiply" in2="effect1_innerShadow_687_1203" result="effect2_innerShadow_687_1203"/>
</filter>
<filter id="filter1_bdii_687_1203" x="1.24564" y="1.00297" width="8.15618" height="8.1513" filterUnits="userSpaceOnUse" color-interpolation-filters="sRGB">
<feFlood flood-opacity="0" result="BackgroundImageFix"/>
<feGaussianBlur in="BackgroundImageFix" stdDeviation="0.923078"/>
<feComposite in2="SourceAlpha" operator="in" result="effect1_backgroundBlur_687_1203"/>
<feColorMatrix in="SourceAlpha" type="matrix" values="0 0 0 0 0 0 0 0 0 0 0 0 0 0 0 0 0 0 127 0" result="hardAlpha"/>
<feOffset dx="0.461539" dy="-0.276923"/>
<feGaussianBlur stdDeviation="0.553847"/>
<feComposite in2="hardAlpha" operator="out"/>
<feColorMatrix type="matrix" values="0 0 0 0 0.25988 0 0 0 0 0.00726044 0 0 0 0 0.5125 0 0 0 0.8 0"/>
<feBlend mode="overlay" in2="effect1_backgroundBlur_687_1203" result="effect2_dropShadow_687_1203"/>
<feBlend mode="normal" in="SourceGraphic" in2="effect2_dropShadow_687_1203" result="shape"/>
<feColorMatrix in="SourceAlpha" type="matrix" values="0 0 0 0 0 0 0 0 0 0 0 0 0 0 0 0 0 0 127 0" result="hardAlpha"/>
<feOffset dx="0.184616" dy="0.184616"/>
<feGaussianBlur stdDeviation="0.138462"/>
<feComposite in2="hardAlpha" operator="arithmetic" k2="-1" k3="1"/>
<feColorMatrix type="matrix" values="0 0 0 0 1 0 0 0 0 1 0 0 0 0 1 0 0 0 1 0"/>
<feBlend mode="overlay" in2="shape" result="effect3_innerShadow_687_1203"/>
<feColorMatrix in="SourceAlpha" type="matrix" values="0 0 0 0 0 0 0 0 0 0 0 0 0 0 0 0 0 0 127 0" result="hardAlpha"/>
<feOffset dx="-0.184616" dy="-0.184616"/>
<feGaussianBlur stdDeviation="0.184616"/>
<feComposite in2="hardAlpha" operator="arithmetic" k2="-1" k3="1"/>
<feColorMatrix type="matrix" values="0 0 0 0 0.394957 0 0 0 0 0.0690799 0 0 0 0 0.720833 0 0 0 0.1 0"/>
<feBlend mode="multiply" in2="effect3_innerShadow_687_1203" result="effect4_innerShadow_687_1203"/>
</filter>
<filter id="filter2_bdii_687_1203" x="14.5982" y="1.00297" width="8.15618" height="8.1513" filterUnits="userSpaceOnUse" color-interpolation-filters="sRGB">
<feFlood flood-opacity="0" result="BackgroundImageFix"/>
<feGaussianBlur in="BackgroundImageFix" stdDeviation="0.923078"/>
<feComposite in2="SourceAlpha" operator="in" result="effect1_backgroundBlur_687_1203"/>
<feColorMatrix in="SourceAlpha" type="matrix" values="0 0 0 0 0 0 0 0 0 0 0 0 0 0 0 0 0 0 127 0" result="hardAlpha"/>
<feOffset dx="0.461539" dy="-0.276923"/>
<feGaussianBlur stdDeviation="0.553847"/>
<feComposite in2="hardAlpha" operator="out"/>
<feColorMatrix type="matrix" values="0 0 0 0 0.25988 0 0 0 0 0.00726044 0 0 0 0 0.5125 0 0 0 0.8 0"/>
<feBlend mode="overlay" in2="effect1_backgroundBlur_687_1203" result="effect2_dropShadow_687_1203"/>
<feBlend mode="normal" in="SourceGraphic" in2="effect2_dropShadow_687_1203" result="shape"/>
<feColorMatrix in="SourceAlpha" type="matrix" values="0 0 0 0 0 0 0 0 0 0 0 0 0 0 0 0 0 0 127 0" result="hardAlpha"/>
<feOffset dx="0.184616" dy="0.184616"/>
<feGaussianBlur stdDeviation="0.138462"/>
<feComposite in2="hardAlpha" operator="arithmetic" k2="-1" k3="1"/>
<feColorMatrix type="matrix" values="0 0 0 0 1 0 0 0 0 1 0 0 0 0 1 0 0 0 1 0"/>
<feBlend mode="overlay" in2="shape" result="effect3_innerShadow_687_1203"/>
<feColorMatrix in="SourceAlpha" type="matrix" values="0 0 0 0 0 0 0 0 0 0 0 0 0 0 0 0 0 0 127 0" result="hardAlpha"/>
<feOffset dx="-0.184616" dy="-0.184616"/>
<feGaussianBlur stdDeviation="0.184616"/>
<feComposite in2="hardAlpha" operator="arithmetic" k2="-1" k3="1"/>
<feColorMatrix type="matrix" values="0 0 0 0 0.394957 0 0 0 0 0.0690799 0 0 0 0 0.720833 0 0 0 0.1 0"/>
<feBlend mode="multiply" in2="effect3_innerShadow_687_1203" result="effect4_innerShadow_687_1203"/>
</filter>
<linearGradient id="paint0_linear_687_1203" x1="4.91146" y1="3.61244" x2="13.8394" y2="16.5993" gradientUnits="userSpaceOnUse">
<stop stop-color="#E33CFE"/>
<stop offset="0.930208" stop-color="#550879"/>
</linearGradient>
<linearGradient id="paint1_linear_687_1203" x1="2.6841" y1="4.19883" x2="6.15453" y2="5.51157" gradientUnits="userSpaceOnUse">
<stop stop-color="#633CFE"/>
<stop offset="1" stop-color="#EC1897"/>
</linearGradient>
<linearGradient id="paint2_linear_687_1203" x1="21.3159" y1="4.19883" x2="17.8455" y2="5.51157" gradientUnits="userSpaceOnUse">
<stop stop-color="#633CFE"/>
<stop offset="1" stop-color="#EC1897"/>
</linearGradient>
</defs>
</svg>
