<svg width="24" height="24" viewBox="0 0 24 24" fill="none" xmlns="http://www.w3.org/2000/svg">
<path d="M1 9C2.46667 10.3333 6.13333 14 12 14C17.8667 14 21.5222 10.3333 22.5 9" stroke="black" stroke-width="1.5" stroke-linecap="round"/>
<line x1="5" y1="13.0607" x2="3.06066" y2="15" stroke="black" stroke-width="1.5" stroke-linecap="round"/>
<path d="M10.0999 14.864L10.3851 14.1703L8.9977 13.6L8.71256 14.2937L10.0999 14.864ZM7.30631 17.7149C7.14884 18.098 7.33176 18.5363 7.71487 18.6937C8.09798 18.8512 8.53621 18.6683 8.69369 18.2852L7.30631 17.7149ZM8.71256 14.2937L7.30631 17.7149L8.69369 18.2852L10.0999 14.864L8.71256 14.2937Z" fill="black"/>
<line x1="14.9749" y1="14.4178" x2="16.4178" y2="18.0251" stroke="black" stroke-width="1.5" stroke-linecap="round"/>
<path d="M19 12.1465L22.1465 15" stroke="black" stroke-width="1.5" stroke-linecap="round"/>
</svg>
