<svg width="40" height="40" viewBox="0 0 40 40" fill="none" xmlns="http://www.w3.org/2000/svg">
<circle cx="20" cy="20" r="19.5" fill="#F3B1B1" stroke="black"/>
<circle cx="20" cy="20" r="17.5" stroke="#E80000" stroke-dasharray="2 2"/>
<path d="M12.74 14.5H15.1V17.66C15.1 18.38 15.5 18.52 17.68 18.52C18.64 18.52 22.94 18.52 24.24 18.52C25.86 18.52 26.14 18.26 26.3 16.72C26.9 17.06 27.88 17.36 28.56 17.48C28.18 20.02 27.36 20.6 24.36 20.6C23.48 20.6 18.54 20.6 17.68 20.6C13.82 20.6 12.74 20.02 12.74 17.72V14.5ZM13.7 14.5H23.78V12.88H12.22V10.82H26.14V16.56H13.7V14.5ZM15.74 22.22H18.12V25.7C18.12 26.3 18.28 26.4 19.24 26.4C19.66 26.4 21.44 26.4 21.98 26.4C22.78 26.4 22.92 26.12 23.02 24.22C23.52 24.58 24.52 24.94 25.16 25.06C24.9 27.84 24.22 28.52 22.2 28.52C21.64 28.52 19.46 28.52 18.96 28.52C16.38 28.52 15.74 27.84 15.74 25.74V22.22ZM17.26 21.42L18.88 19.98C20.22 20.7 21.88 21.82 22.68 22.74L20.92 24.32C20.22 23.42 18.64 22.2 17.26 21.42ZM24.1 22.78L26.14 21.8C27.48 23.24 28.88 25.22 29.4 26.66L27.16 27.76C26.74 26.34 25.42 24.3 24.1 22.78ZM12.84 22.02L15 22.7C14.54 24.66 13.82 26.64 12.44 27.92L10.42 26.62C11.66 25.54 12.46 23.82 12.84 22.02Z" fill="#E80000"/>
</svg>
