<svg width="128" height="56" viewBox="0 0 128 56" fill="none" xmlns="http://www.w3.org/2000/svg">
<g clip-path="url(#clip0_543_5826)">
<path d="M36.2742 14.7204L31.9199 16.5415L44.6901 24.738L36.2742 14.7204Z" fill="url(#paint0_radial_543_5826)"/>
<path d="M21.6208 16.8446L40.9181 24.738L25.6825 13.0508L21.6208 16.8446Z" fill="url(#paint1_radial_543_5826)"/>
<path d="M27.5683 20.6383L26.2617 25.1925L42.659 27.7712L27.5683 20.6383Z" fill="url(#paint2_radial_543_5826)"/>
<path d="M15.9597 28.2287H36.5636L16.2494 24.435L15.9597 28.2287Z" fill="url(#paint3_radial_543_5826)"/>
<path d="M42.0768 30.5044L25.6824 29.4408L26.6964 34.4496L42.0768 30.5044Z" fill="url(#paint4_radial_543_5826)"/>
<path d="M21.7656 42.4946L38.4498 33.3861L17.8459 38.2434L21.7656 42.4946Z" fill="url(#paint5_radial_543_5826)"/>
<path d="M43.3833 33.5406L30.0337 40.216L34.5328 42.0371L43.3833 33.5406Z" fill="url(#paint6_radial_543_5826)"/>
<path d="M41.4973 37.6374L27.2786 48.564L32.3571 49.1701L41.4973 37.6374Z" fill="url(#paint7_radial_543_5826)"/>
<path d="M41.932 43.1007L45.4142 34.6012L39.032 43.1007H41.932Z" fill="url(#paint8_radial_543_5826)"/>
<path d="M30.1785 55.8485L33.9533 56L39.3215 45.2248L30.1785 55.8485Z" fill="url(#paint9_radial_543_5826)"/>
<path d="M38.7395 49.4731L42.2218 49.0186L45.5592 38.0919L38.7395 49.4731Z" fill="url(#paint10_radial_543_5826)"/>
<path d="M45.5591 41.8856L48.0273 39.7615L47.5928 34.1466L45.5591 41.8856Z" fill="url(#paint11_radial_543_5826)"/>
<path d="M47.1555 42.1886L42.949 51.7517L48.4621 51.2942L47.1555 42.1886Z" fill="url(#paint12_radial_543_5826)"/>
<path d="M47.0105 24.738L44.9797 15.1749L41.3525 14.2659L47.0105 24.738Z" fill="url(#paint13_radial_543_5826)"/>
<path d="M48.1724 15.3265L46.7209 13.9629L47.5929 22.9169L48.1724 15.3265Z" fill="url(#paint14_radial_543_5826)"/>
<path d="M38.1602 0.912042L33.3713 0L42.6593 12.7478L38.1602 0.912042Z" fill="url(#paint15_radial_543_5826)"/>
<path d="M34.9673 7.133L30.1785 7.28451L43.0935 20.3353L34.9673 7.133Z" fill="url(#paint16_radial_543_5826)"/>
<path d="M20.6036 0.454529L16.6868 2.57867L32.7915 13.6598L20.6036 0.454529Z" fill="url(#paint17_radial_543_5826)"/>
<path d="M4.93359 13.8114L2.03076 19.8808L23.7963 22.0049L4.93359 13.8114Z" fill="url(#paint18_radial_543_5826)"/>
<path d="M0 33.2346L2.75797 38.6979L22.6347 33.0831L0 33.2346Z" fill="url(#paint19_radial_543_5826)"/>
<path d="M11.1711 52.0548L15.96 53.2698L29.7441 42.4947C28.875 42.7977 11.1711 52.0548 11.1711 52.0548Z" fill="url(#paint20_radial_543_5826)"/>
</g>
<g clip-path="url(#clip1_543_5826)">
<path d="M59.482 33.8197V36.5143H62.2343V36.8886H60.2404V39.3841C60.2404 39.6099 60.3426 39.7228 60.5585 39.7228H61.4248C61.6009 39.7228 61.7287 39.6663 61.8026 39.5683C61.8963 39.4405 61.9588 39.0603 61.9929 38.4215L62.3508 38.5433C62.3025 39.2653 62.2087 39.7109 62.0667 39.8802C61.9446 40.0139 61.7571 40.0852 61.493 40.0852H60.4506C60.0643 40.0852 59.8768 39.8743 59.8768 39.4643V36.8886H58.6384V36.951C58.6242 37.8363 58.4425 38.5433 58.0988 39.0811C57.7608 39.5772 57.2069 39.9575 56.4343 40.2397L56.2327 39.9069C56.9768 39.6396 57.5051 39.2771 57.8204 38.8107C58.1045 38.3384 58.2521 37.7145 58.2664 36.951V36.8886H56.3718V36.5143H59.1156V33.8197H59.482ZM58.2266 35.8696L57.8829 36.0538C57.579 35.4388 57.2552 34.8863 56.9087 34.405L57.2523 34.2267C57.6017 34.7318 57.9284 35.2754 58.2266 35.8696ZM61.706 34.3426C61.4703 34.9308 61.1578 35.5012 60.7801 36.0538L60.4421 35.8696C60.8198 35.2962 61.1237 34.7318 61.3538 34.1733L61.706 34.3426Z" fill="black"/>
<path d="M70.5138 36.9094C70.5081 38.2106 70.2099 39.3276 69.6134 40.2694L69.3293 40.0079C69.869 39.2028 70.1474 38.169 70.153 36.9094V34.6248H72.431C72.3231 34.3277 72.2066 34.0663 72.0873 33.8316L72.4594 33.7603C72.5815 34.0158 72.6952 34.3039 72.8031 34.6218H74.9674V36.5885H70.5138V36.9094ZM70.5138 34.9932V36.232H74.6039V34.9932H70.5138ZM74.8936 40.2961H74.5357V39.9069H71.4198V40.2961H71.0534V37.658H74.8936V40.2961ZM74.5357 39.5385V38.0175H71.4198V39.5385H74.5357Z" fill="black"/>
<path d="M83.8548 36.024V39.2771C84.1246 39.0513 84.4172 38.781 84.7325 38.4631L84.8262 38.8582C84.42 39.2741 83.9798 39.6514 83.5083 39.9752L83.3663 39.6366C83.4486 39.5504 83.4941 39.4672 83.4941 39.3811V36.4013H82.4602V36.027H83.8548V36.024ZM84.3689 35.0199L84.119 35.2873C83.8207 34.9338 83.4231 34.5505 82.9232 34.1554L83.1873 33.894C83.6531 34.2713 84.0451 34.6456 84.3689 35.0199ZM86.4594 35.9914V33.8138H86.8372V35.9914H88.6209V36.3746H86.8372V40.2931H86.4594V36.3716H84.5876V35.9884H86.4594V35.9914Z" fill="black"/>
<path d="M100.854 35.4299V38.1393H100.036V38.6978H101.624V39.0365H100.036V40.2872H99.6785V39.0365H97.6647C97.5965 39.2623 97.5028 39.4524 97.375 39.6158C97.1449 39.8832 96.7813 40.0971 96.2672 40.2516L96.0713 39.9396C96.5456 39.8059 96.8893 39.6218 97.0909 39.3871C97.1733 39.2742 97.233 39.1613 97.2727 39.0335H95.6509V38.6949H97.3551C97.3693 38.6087 97.375 38.5255 97.375 38.4542V38.1363H96.4973V35.427H100.854V35.4299ZM96.0286 35.4804L95.7247 35.2754C96.1309 34.8358 96.4348 34.3337 96.6308 33.7752L96.9745 33.8524C96.9205 34.0069 96.8523 34.1644 96.7842 34.3129H98.548V34.6516H97.5681C97.7044 34.8358 97.8124 35.0051 97.8919 35.1596L97.5823 35.2784C97.4744 35.0586 97.338 34.8476 97.1903 34.6486H96.6166C96.4462 34.9516 96.2502 35.2249 96.0286 35.4804ZM100.497 36.2439V35.7419H96.858V36.2439H100.497ZM100.497 37.0163V36.5351H96.858V37.0163H100.497ZM100.497 37.2986H96.858V37.8303H100.497V37.2986ZM97.7385 38.4572C97.7385 38.5433 97.7328 38.6206 97.7243 38.6978H99.6785V38.1393H97.7385V38.4572ZM98.923 35.3408L98.619 35.1358C98.957 34.7407 99.207 34.2862 99.3689 33.793L99.7211 33.8702C99.6671 34.0188 99.6132 34.1614 99.5592 34.301H101.573V34.6397H100.349C100.491 34.8298 100.607 35.0081 100.692 35.1715L100.389 35.2903C100.266 35.0645 100.119 34.8506 99.9568 34.6397H99.3945C99.261 34.8952 99.0962 35.1269 98.923 35.3408Z" fill="black"/>
<path d="M109.952 35.7716V34.604C109.614 34.6605 109.256 34.7021 108.89 34.7466L108.816 34.3872C109.702 34.301 110.481 34.1465 111.157 33.9356L111.284 34.2951C110.986 34.3872 110.662 34.4644 110.324 34.5357V35.7745H111.304V36.1489H110.324V36.538C110.716 36.8767 111.122 37.2659 111.534 37.7056L111.333 38.0234C110.935 37.5511 110.597 37.1738 110.324 36.9064V40.2545H109.952V36.7757C109.682 37.5184 109.296 38.1839 108.796 38.778L108.634 38.3681C109.242 37.7174 109.668 36.9747 109.918 36.1489H108.816V35.7745H109.952V35.7716ZM114.855 38.0769L114.125 38.2047V40.2545H113.758V38.267L111.594 38.6354L111.54 38.2522L113.758 37.869V33.8465H114.125V37.8066L114.795 37.6937L114.855 38.0769ZM113.19 37.0371L112.926 37.3045C112.602 36.9302 112.168 36.5351 111.628 36.1102L111.884 35.8488C112.406 36.2439 112.838 36.639 113.19 37.0371ZM113.366 35.3527L113.116 35.62C112.798 35.2606 112.372 34.8773 111.838 34.4733L112.088 34.2119C112.602 34.5981 113.028 34.9724 113.366 35.3527Z" fill="black"/>
<path d="M121.984 40.1892L121.91 39.8356C122.086 39.8505 122.254 39.8564 122.418 39.8564C122.62 39.8564 122.722 39.7435 122.722 39.5178V37.6848C122.433 37.8125 122.134 37.9254 121.831 38.0234L121.737 37.6491C122.075 37.5511 122.407 37.4382 122.725 37.3104V35.5369H121.867V35.1625H122.725V33.8316H123.092V35.1625H123.842V35.5369H123.092V37.15C123.356 37.0223 123.611 36.8826 123.87 36.7252V37.0995C123.614 37.254 123.356 37.3906 123.092 37.5154V39.6099C123.092 39.9931 122.91 40.1892 122.552 40.1892H121.984ZM125.776 34.8952V33.8405H126.142V34.8952H127.798V35.2546H126.142V36.5202H127.528V36.8678C127.273 37.6818 126.866 38.368 126.298 38.9325C126.759 39.3276 127.327 39.6663 128.003 39.9634L127.812 40.2753C127.108 39.9515 126.52 39.5831 126.048 39.1583C125.509 39.6247 124.844 40.0079 124.074 40.2902L123.898 39.9634C124.648 39.696 125.279 39.3484 125.793 38.9177C125.205 38.3235 124.813 37.6521 124.608 36.8886H124.242V36.5202H125.776V35.2546H124.12V34.8952H125.776ZM126.031 38.6919C126.546 38.1839 126.923 37.5808 127.168 36.8886H124.949C125.14 37.5659 125.506 38.169 126.031 38.6919Z" fill="black"/>
<path d="M58.9059 23.8051H63.0017V28.9951H59.2695C58.6275 28.9951 58.1134 28.9446 57.7357 28.8436C57.3579 28.7426 57.0114 28.5673 56.7018 28.3118C55.8241 27.6048 55.3867 26.3867 55.3867 24.6577C55.3867 23.5318 55.5941 22.593 56.0144 21.8414C56.324 21.2918 56.7444 20.8877 57.2812 20.6352C57.8152 20.3827 58.5083 20.2549 59.3604 20.2549H63.0045V21.8146H59.5592C58.815 21.8117 58.2753 21.984 57.943 22.3256C57.5425 22.7267 57.3409 23.4486 57.3409 24.4884C57.3409 25.0201 57.392 25.5014 57.4971 25.9292C57.6022 26.357 57.747 26.6749 57.9288 26.8858C58.0879 27.0789 58.3066 27.2186 58.5878 27.3047C58.8661 27.3909 59.2127 27.4354 59.6217 27.4354H61.2378V25.3648H58.9087V23.8051H58.9059Z" fill="black"/>
<path d="M68.9152 20.2549V25.4955C68.9152 25.9144 68.9493 26.2412 69.0146 26.4729C69.0828 26.7046 69.1935 26.9036 69.3526 27.07C69.702 27.4295 70.1933 27.6077 70.8182 27.6077C71.2187 27.6077 71.5681 27.5364 71.8635 27.3909C72.1589 27.2483 72.3662 27.0522 72.4827 26.8086C72.5991 26.565 72.6588 26.1283 72.6588 25.4984V20.2549H74.4368V25.4034C74.4368 26.0837 74.3687 26.6452 74.2295 27.0878C74.0903 27.5305 73.8801 27.884 73.5961 28.1544C72.9371 28.7574 71.9998 29.0575 70.7898 29.0575C69.4946 29.0575 68.5516 28.7604 67.958 28.1662C67.6484 27.8602 67.4354 27.5186 67.3189 27.1383C67.2025 26.7581 67.1428 26.2233 67.1428 25.5341V20.2549H68.9152Z" fill="black"/>
<path d="M77.9988 28.9921L81.4555 20.2549H83.4977L86.9544 28.9951H84.8752L84.0601 26.9779H80.8931L80.0779 28.9951H77.9988V28.9921ZM82.4837 22.3642L81.2936 25.4182H83.6738L82.4837 22.3642Z" fill="black"/>
<path d="M92.3168 22.587V28.9951H90.6125V20.2549H92.8933L96.2137 26.767V20.2549H97.9037V28.9951H95.7252L92.3168 22.587Z" fill="black"/>
<path d="M105.434 23.8051H109.53V28.9951H105.797C105.155 28.9951 104.641 28.9446 104.264 28.8436C103.886 28.7426 103.539 28.5673 103.23 28.3118C102.352 27.6048 101.915 26.3867 101.915 24.6577C101.915 23.5318 102.122 22.593 102.542 21.8414C102.852 21.2918 103.272 20.8877 103.809 20.6352C104.343 20.3827 105.036 20.2549 105.888 20.2549H109.532V21.8146H106.087C105.343 21.8146 104.806 21.984 104.471 22.3256C104.07 22.7267 103.869 23.4486 103.869 24.4884C103.869 25.0201 103.92 25.5014 104.025 25.9292C104.13 26.357 104.275 26.6749 104.457 26.8858C104.616 27.0789 104.834 27.2186 105.116 27.3047C105.394 27.3909 105.74 27.4354 106.15 27.4354H107.766V25.3648H105.437V23.8051H105.434Z" fill="black"/>
<path d="M122.069 27.4354V28.9951H118.937H118.261C117.559 28.9951 117.079 28.9832 116.821 28.9624C116.562 28.9416 116.252 28.8852 115.895 28.799C114.96 28.5733 114.27 28.0118 113.827 27.1205C113.492 26.4402 113.327 25.6232 113.327 24.6696C113.327 23.0089 113.725 21.8235 114.517 21.1046C115.193 20.5015 116.17 20.2015 117.448 20.2015C118.292 20.2015 119.027 20.35 119.652 20.6471C120.044 20.8402 120.365 21.0749 120.618 21.3542C120.868 21.6334 121.07 21.9959 121.22 22.4415C121.462 23.1307 121.584 23.8407 121.584 24.5656C121.584 25.6826 121.274 26.6392 120.658 27.4354H122.069ZM117.46 21.6691C116.724 21.6691 116.179 21.9038 115.824 22.3702C115.469 22.8366 115.292 23.5466 115.292 24.5003C115.292 25.3291 115.409 26.0035 115.645 26.5174C115.954 27.1889 116.562 27.5275 117.474 27.5275C118.326 27.5275 118.914 27.2186 119.24 26.5977C119.49 26.1253 119.615 25.439 119.615 24.5418C119.615 23.7219 119.465 23.0535 119.164 22.5365C118.82 21.9661 118.252 21.678 117.46 21.6691Z" fill="black"/>
<path d="M126.003 28.9921V20.2549H127.781V28.9951H126.003V28.9921Z" fill="black"/>
</g>
<defs>
<radialGradient id="paint0_radial_543_5826" cx="0" cy="0" r="1" gradientUnits="userSpaceOnUse" gradientTransform="translate(46.9257 28.4481) scale(47.3155 49.4891)">
<stop stop-color="#E7EDF8"/>
<stop offset="0.4037" stop-color="#C7D5ED"/>
<stop offset="0.4636" stop-color="#C3D2EC"/>
<stop offset="0.5232" stop-color="#B8CAE9"/>
<stop offset="0.5828" stop-color="#A5BDE3"/>
<stop offset="0.6419" stop-color="#88ABDA"/>
<stop offset="0.6483" stop-color="#85A9D9"/>
<stop offset="1" stop-color="#1A4F6D"/>
</radialGradient>
<radialGradient id="paint1_radial_543_5826" cx="0" cy="0" r="1" gradientUnits="userSpaceOnUse" gradientTransform="translate(46.9257 28.4481) scale(47.3155 49.4891)">
<stop stop-color="#E7EDF8"/>
<stop offset="0.4037" stop-color="#C7D5ED"/>
<stop offset="0.4636" stop-color="#C3D2EC"/>
<stop offset="0.5232" stop-color="#B8CAE9"/>
<stop offset="0.5828" stop-color="#A5BDE3"/>
<stop offset="0.6419" stop-color="#88ABDA"/>
<stop offset="0.6483" stop-color="#85A9D9"/>
<stop offset="1" stop-color="#1A4F6D"/>
</radialGradient>
<radialGradient id="paint2_radial_543_5826" cx="0" cy="0" r="1" gradientUnits="userSpaceOnUse" gradientTransform="translate(46.9255 28.4481) scale(47.3155 49.4891)">
<stop stop-color="#E7EDF8"/>
<stop offset="0.4037" stop-color="#C7D5ED"/>
<stop offset="0.4636" stop-color="#C3D2EC"/>
<stop offset="0.5232" stop-color="#B8CAE9"/>
<stop offset="0.5828" stop-color="#A5BDE3"/>
<stop offset="0.6419" stop-color="#88ABDA"/>
<stop offset="0.6483" stop-color="#85A9D9"/>
<stop offset="1" stop-color="#1A4F6D"/>
</radialGradient>
<radialGradient id="paint3_radial_543_5826" cx="0" cy="0" r="1" gradientUnits="userSpaceOnUse" gradientTransform="translate(46.9254 28.4481) scale(47.3155 49.4891)">
<stop stop-color="#E7EDF8"/>
<stop offset="0.4037" stop-color="#C7D5ED"/>
<stop offset="0.4636" stop-color="#C3D2EC"/>
<stop offset="0.5232" stop-color="#B8CAE9"/>
<stop offset="0.5828" stop-color="#A5BDE3"/>
<stop offset="0.6419" stop-color="#88ABDA"/>
<stop offset="0.6483" stop-color="#85A9D9"/>
<stop offset="1" stop-color="#1A4F6D"/>
</radialGradient>
<radialGradient id="paint4_radial_543_5826" cx="0" cy="0" r="1" gradientUnits="userSpaceOnUse" gradientTransform="translate(46.9256 28.4481) scale(47.3155 49.4891)">
<stop stop-color="#E7EDF8"/>
<stop offset="0.4037" stop-color="#C7D5ED"/>
<stop offset="0.4636" stop-color="#C3D2EC"/>
<stop offset="0.5232" stop-color="#B8CAE9"/>
<stop offset="0.5828" stop-color="#A5BDE3"/>
<stop offset="0.6419" stop-color="#88ABDA"/>
<stop offset="0.6483" stop-color="#85A9D9"/>
<stop offset="1" stop-color="#1A4F6D"/>
</radialGradient>
<radialGradient id="paint5_radial_543_5826" cx="0" cy="0" r="1" gradientUnits="userSpaceOnUse" gradientTransform="translate(46.9256 28.4482) scale(47.3155 49.4891)">
<stop stop-color="#E7EDF8"/>
<stop offset="0.4037" stop-color="#C7D5ED"/>
<stop offset="0.4636" stop-color="#C3D2EC"/>
<stop offset="0.5232" stop-color="#B8CAE9"/>
<stop offset="0.5828" stop-color="#A5BDE3"/>
<stop offset="0.6419" stop-color="#88ABDA"/>
<stop offset="0.6483" stop-color="#85A9D9"/>
<stop offset="1" stop-color="#1A4F6D"/>
</radialGradient>
<radialGradient id="paint6_radial_543_5826" cx="0" cy="0" r="1" gradientUnits="userSpaceOnUse" gradientTransform="translate(46.9255 28.4482) scale(47.3155 49.4891)">
<stop stop-color="#E7EDF8"/>
<stop offset="0.4037" stop-color="#C7D5ED"/>
<stop offset="0.4636" stop-color="#C3D2EC"/>
<stop offset="0.5232" stop-color="#B8CAE9"/>
<stop offset="0.5828" stop-color="#A5BDE3"/>
<stop offset="0.6419" stop-color="#88ABDA"/>
<stop offset="0.6483" stop-color="#85A9D9"/>
<stop offset="1" stop-color="#1A4F6D"/>
</radialGradient>
<radialGradient id="paint7_radial_543_5826" cx="0" cy="0" r="1" gradientUnits="userSpaceOnUse" gradientTransform="translate(46.9255 28.4482) scale(47.3155 49.4891)">
<stop stop-color="#E7EDF8"/>
<stop offset="0.4037" stop-color="#C7D5ED"/>
<stop offset="0.4636" stop-color="#C3D2EC"/>
<stop offset="0.5232" stop-color="#B8CAE9"/>
<stop offset="0.5828" stop-color="#A5BDE3"/>
<stop offset="0.6419" stop-color="#88ABDA"/>
<stop offset="0.6483" stop-color="#85A9D9"/>
<stop offset="1" stop-color="#1A4F6D"/>
</radialGradient>
<radialGradient id="paint8_radial_543_5826" cx="0" cy="0" r="1" gradientUnits="userSpaceOnUse" gradientTransform="translate(46.9256 28.4481) scale(47.3155 49.4891)">
<stop stop-color="#E7EDF8"/>
<stop offset="0.4037" stop-color="#C7D5ED"/>
<stop offset="0.4636" stop-color="#C3D2EC"/>
<stop offset="0.5232" stop-color="#B8CAE9"/>
<stop offset="0.5828" stop-color="#A5BDE3"/>
<stop offset="0.6419" stop-color="#88ABDA"/>
<stop offset="0.6483" stop-color="#85A9D9"/>
<stop offset="1" stop-color="#1A4F6D"/>
</radialGradient>
<radialGradient id="paint9_radial_543_5826" cx="0" cy="0" r="1" gradientUnits="userSpaceOnUse" gradientTransform="translate(46.9254 28.4481) scale(47.3155 49.4891)">
<stop stop-color="#E7EDF8"/>
<stop offset="0.4037" stop-color="#C7D5ED"/>
<stop offset="0.4636" stop-color="#C3D2EC"/>
<stop offset="0.5232" stop-color="#B8CAE9"/>
<stop offset="0.5828" stop-color="#A5BDE3"/>
<stop offset="0.6419" stop-color="#88ABDA"/>
<stop offset="0.6483" stop-color="#85A9D9"/>
<stop offset="1" stop-color="#1A4F6D"/>
</radialGradient>
<radialGradient id="paint10_radial_543_5826" cx="0" cy="0" r="1" gradientUnits="userSpaceOnUse" gradientTransform="translate(46.9257 28.4482) scale(47.3155 49.4891)">
<stop stop-color="#E7EDF8"/>
<stop offset="0.4037" stop-color="#C7D5ED"/>
<stop offset="0.4636" stop-color="#C3D2EC"/>
<stop offset="0.5232" stop-color="#B8CAE9"/>
<stop offset="0.5828" stop-color="#A5BDE3"/>
<stop offset="0.6419" stop-color="#88ABDA"/>
<stop offset="0.6483" stop-color="#85A9D9"/>
<stop offset="1" stop-color="#1A4F6D"/>
</radialGradient>
<radialGradient id="paint11_radial_543_5826" cx="0" cy="0" r="1" gradientUnits="userSpaceOnUse" gradientTransform="translate(46.9256 28.4482) scale(47.3155 49.4891)">
<stop stop-color="#E7EDF8"/>
<stop offset="0.4037" stop-color="#C7D5ED"/>
<stop offset="0.4636" stop-color="#C3D2EC"/>
<stop offset="0.5232" stop-color="#B8CAE9"/>
<stop offset="0.5828" stop-color="#A5BDE3"/>
<stop offset="0.6419" stop-color="#88ABDA"/>
<stop offset="0.6483" stop-color="#85A9D9"/>
<stop offset="1" stop-color="#1A4F6D"/>
</radialGradient>
<radialGradient id="paint12_radial_543_5826" cx="0" cy="0" r="1" gradientUnits="userSpaceOnUse" gradientTransform="translate(46.9257 28.4481) scale(47.3154 49.4891)">
<stop stop-color="#E7EDF8"/>
<stop offset="0.4037" stop-color="#C7D5ED"/>
<stop offset="0.4636" stop-color="#C3D2EC"/>
<stop offset="0.5232" stop-color="#B8CAE9"/>
<stop offset="0.5828" stop-color="#A5BDE3"/>
<stop offset="0.6419" stop-color="#88ABDA"/>
<stop offset="0.6483" stop-color="#85A9D9"/>
<stop offset="1" stop-color="#1A4F6D"/>
</radialGradient>
<radialGradient id="paint13_radial_543_5826" cx="0" cy="0" r="1" gradientUnits="userSpaceOnUse" gradientTransform="translate(46.9256 28.4481) scale(47.3155 49.4891)">
<stop stop-color="#E7EDF8"/>
<stop offset="0.4037" stop-color="#C7D5ED"/>
<stop offset="0.4636" stop-color="#C3D2EC"/>
<stop offset="0.5232" stop-color="#B8CAE9"/>
<stop offset="0.5828" stop-color="#A5BDE3"/>
<stop offset="0.6419" stop-color="#88ABDA"/>
<stop offset="0.6483" stop-color="#85A9D9"/>
<stop offset="1" stop-color="#1A4F6D"/>
</radialGradient>
<radialGradient id="paint14_radial_543_5826" cx="0" cy="0" r="1" gradientUnits="userSpaceOnUse" gradientTransform="translate(46.9257 28.4482) scale(47.3155 49.4891)">
<stop stop-color="#E7EDF8"/>
<stop offset="0.4037" stop-color="#C7D5ED"/>
<stop offset="0.4636" stop-color="#C3D2EC"/>
<stop offset="0.5232" stop-color="#B8CAE9"/>
<stop offset="0.5828" stop-color="#A5BDE3"/>
<stop offset="0.6419" stop-color="#88ABDA"/>
<stop offset="0.6483" stop-color="#85A9D9"/>
<stop offset="1" stop-color="#1A4F6D"/>
</radialGradient>
<radialGradient id="paint15_radial_543_5826" cx="0" cy="0" r="1" gradientUnits="userSpaceOnUse" gradientTransform="translate(46.9257 28.4481) scale(47.3155 49.4891)">
<stop stop-color="#E7EDF8"/>
<stop offset="0.4037" stop-color="#C7D5ED"/>
<stop offset="0.4636" stop-color="#C3D2EC"/>
<stop offset="0.5232" stop-color="#B8CAE9"/>
<stop offset="0.5828" stop-color="#A5BDE3"/>
<stop offset="0.6419" stop-color="#88ABDA"/>
<stop offset="0.6483" stop-color="#85A9D9"/>
<stop offset="1" stop-color="#1A4F6D"/>
</radialGradient>
<radialGradient id="paint16_radial_543_5826" cx="0" cy="0" r="1" gradientUnits="userSpaceOnUse" gradientTransform="translate(46.9254 28.4482) scale(47.3155 49.4891)">
<stop stop-color="#E7EDF8"/>
<stop offset="0.4037" stop-color="#C7D5ED"/>
<stop offset="0.4636" stop-color="#C3D2EC"/>
<stop offset="0.5232" stop-color="#B8CAE9"/>
<stop offset="0.5828" stop-color="#A5BDE3"/>
<stop offset="0.6419" stop-color="#88ABDA"/>
<stop offset="0.6483" stop-color="#85A9D9"/>
<stop offset="1" stop-color="#1A4F6D"/>
</radialGradient>
<radialGradient id="paint17_radial_543_5826" cx="0" cy="0" r="1" gradientUnits="userSpaceOnUse" gradientTransform="translate(46.9253 28.4481) scale(47.3155 49.4891)">
<stop stop-color="#E7EDF8"/>
<stop offset="0.4037" stop-color="#C7D5ED"/>
<stop offset="0.4636" stop-color="#C3D2EC"/>
<stop offset="0.5232" stop-color="#B8CAE9"/>
<stop offset="0.5828" stop-color="#A5BDE3"/>
<stop offset="0.6419" stop-color="#88ABDA"/>
<stop offset="0.6483" stop-color="#85A9D9"/>
<stop offset="1" stop-color="#1A4F6D"/>
</radialGradient>
<radialGradient id="paint18_radial_543_5826" cx="0" cy="0" r="1" gradientUnits="userSpaceOnUse" gradientTransform="translate(46.9255 28.4482) scale(47.3155 49.4891)">
<stop stop-color="#E7EDF8"/>
<stop offset="0.4037" stop-color="#C7D5ED"/>
<stop offset="0.4636" stop-color="#C3D2EC"/>
<stop offset="0.5232" stop-color="#B8CAE9"/>
<stop offset="0.5828" stop-color="#A5BDE3"/>
<stop offset="0.6419" stop-color="#88ABDA"/>
<stop offset="0.6483" stop-color="#85A9D9"/>
<stop offset="1" stop-color="#1A4F6D"/>
</radialGradient>
<radialGradient id="paint19_radial_543_5826" cx="0" cy="0" r="1" gradientUnits="userSpaceOnUse" gradientTransform="translate(46.9256 28.4481) scale(47.3155 49.4891)">
<stop stop-color="#E7EDF8"/>
<stop offset="0.4037" stop-color="#C7D5ED"/>
<stop offset="0.4636" stop-color="#C3D2EC"/>
<stop offset="0.5232" stop-color="#B8CAE9"/>
<stop offset="0.5828" stop-color="#A5BDE3"/>
<stop offset="0.6419" stop-color="#88ABDA"/>
<stop offset="0.6483" stop-color="#85A9D9"/>
<stop offset="1" stop-color="#1A4F6D"/>
</radialGradient>
<radialGradient id="paint20_radial_543_5826" cx="0" cy="0" r="1" gradientUnits="userSpaceOnUse" gradientTransform="translate(46.9256 28.4482) scale(47.3155 49.4891)">
<stop stop-color="#E7EDF8"/>
<stop offset="0.4037" stop-color="#C7D5ED"/>
<stop offset="0.4636" stop-color="#C3D2EC"/>
<stop offset="0.5232" stop-color="#B8CAE9"/>
<stop offset="0.5828" stop-color="#A5BDE3"/>
<stop offset="0.6419" stop-color="#88ABDA"/>
<stop offset="0.6483" stop-color="#85A9D9"/>
<stop offset="1" stop-color="#1A4F6D"/>
</radialGradient>
<clipPath id="clip0_543_5826">
<rect width="48.4619" height="56" fill="white"/>
</clipPath>
<clipPath id="clip1_543_5826">
<rect width="72.6133" height="20.0946" fill="white" transform="translate(55.3867 20.2016)"/>
</clipPath>
</defs>
</svg>
