<svg width="40" height="40" viewBox="0 0 40 40" fill="none" xmlns="http://www.w3.org/2000/svg">
<path fill-rule="evenodd" clip-rule="evenodd" d="M20 40C31.0444 40 40 31.0444 40 20C40 8.95556 31.0444 0 20 0C8.95556 0 0 8.95556 0 20C0 31.0444 8.95556 40 20 40Z" fill="black"/>
<path fill-rule="evenodd" clip-rule="evenodd" d="M8 29.7174V29.1435C8 24.0946 12.093 20 17.1459 20H22.8541C27.907 20 32 24.0946 32 29.1435V29.7174C32 30.9812 30.9751 32 29.7168 32H10.2832C9.02486 32 8 30.9812 8 29.7174ZM22.7093 23.0215C22.7093 22.5255 22.3071 22.1234 21.8111 22.1234H18.1865C17.6905 22.1234 17.2884 22.5255 17.2884 23.0215C17.2884 23.5176 17.6905 23.9197 18.1865 23.9197H21.8111C22.3071 23.9197 22.7093 23.5176 22.7093 23.0215Z" fill="white"/>
<path fill-rule="evenodd" clip-rule="evenodd" d="M20 20C23.3099 20 26 17.313 26 13.9966C26 10.687 23.3099 8 20 8C16.6833 8 14 10.687 14 13.9966C14 17.313 16.6833 20 20 20Z" fill="#BEBEBE"/>
</svg>
