<svg width="475" height="41" viewBox="0 0 475 41" fill="none" xmlns="http://www.w3.org/2000/svg">
<path d="M3.48 31.08H28.28V35.92H3.48V31.08ZM3.4 18.88H28.32V23.64H3.4V18.88ZM0.88 6.88H31.16V38.48H26.08V11.72H5.72V38.56H0.88V6.88ZM12.64 0.879998L18.92 1.72C17.68 4.72 16.2 7.68 15.04 9.68L10.28 8.72C11.2 6.48 12.2 3.28 12.64 0.879998ZM53.48 1.6H58.76V32.6C58.76 35.56 58.08 36.88 56.24 37.64C54.4 38.44 51.64 38.6 47.72 38.56C47.48 37.16 46.56 34.88 45.8 33.56C48.44 33.72 51.44 33.68 52.28 33.64C53.16 33.64 53.48 33.36 53.48 32.56V1.6ZM63.12 12.12L67.8 10.36C71.08 16 74.4 23.32 75.4 28.32L70.16 30.4C69.32 25.56 66.28 18 63.12 12.12ZM43 10.76L48.48 11.68C47.12 17.72 44.92 25.2 41.56 29.64C40.4 28.76 38.2 27.64 36.88 27.12C40.12 23.04 42.16 16 43 10.76ZM90.92 5.92H114.36V10.32H90.92V5.92ZM94.2 24.56H110.88V28.64H94.2V24.56ZM94.12 32.64H110.8V36.88H94.12V32.64ZM95.64 1.48H100.2V14.88H95.64V1.48ZM105.32 1.48H109.92V14.88H105.32V1.48ZM100.36 18.6H104.76V34.72H100.36V18.6ZM92.04 16.52H113.28V38.36H108.64V20.72H96.48V38.6H92.04V16.52ZM80.76 4.52H89.84V28.52H80.76V23.88H85.48V9.12H80.76V4.52ZM78.32 4.52H82.56V31.76H78.32V4.52ZM123.72 40.52L122.44 37.32C125.8 36.24 127.64 34.28 127.64 32L127.36 28.04L129.56 31.64C128.92 32.24 128.08 32.52 127.2 32.52C125.2 32.52 123.36 31.24 123.36 28.92C123.36 26.68 125.16 25.32 127.32 25.32C130.12 25.32 131.64 27.48 131.64 30.84C131.64 35.36 128.68 39.04 123.72 40.52ZM174.04 1.16L178.76 2.24C177.08 8.56 174.24 14.84 171.04 18.8C170.2 17.96 168.28 16.4 167.2 15.68C170.24 12.24 172.68 6.72 174.04 1.16ZM172.92 18.96L177.56 19.92C176.44 25 174.36 30.12 172.12 33.36C171.2 32.6 169.16 31.36 168.04 30.76C170.28 27.96 172 23.4 172.92 18.96ZM174.92 8.2H191.32V12.64H173.12L174.92 8.2ZM179.52 10.16H184.28V33.24C184.28 35.56 183.88 36.88 182.44 37.68C181.04 38.44 179.08 38.64 176.52 38.64C176.28 37.24 175.56 35.12 174.88 33.8C176.56 33.88 178.24 33.84 178.8 33.84C179.32 33.84 179.52 33.72 179.52 33.2V10.16ZM185.68 20L190 18.56C192.08 22.68 193.8 28 194.36 31.64L189.76 33.24C189.32 29.64 187.64 24.12 185.68 20ZM190.04 8.2H190.68L191.44 8.08L194.8 8.68C194.32 11.96 193.6 15.68 193.08 18.08L188.96 17.36C189.32 15.2 189.76 11.64 190.04 8.84V8.2ZM165.48 1.2L170 2.6C167.4 9.44 163.24 16.64 158.88 21.2C158.44 20.04 157.16 17.4 156.32 16.24C159.96 12.6 163.44 6.92 165.48 1.2ZM161.6 12.24L166.16 7.68L166.2 7.72V38.56H161.6V12.24ZM201.72 7.52H214V34.48H201.72V30.24H209.64V11.72H201.72V7.52ZM198.92 7.52H203.28V37.44H198.92V7.52ZM201.52 18.2H211.76V22.36H201.52V18.2ZM204.6 0.999999L209.84 1.76C208.92 4.48 207.92 7.32 207.12 9.2L203.28 8.36C203.84 6.28 204.4 3.2 204.6 0.999999ZM219.28 7.24H230.96V11.6H219.28V7.24ZM229.32 7.24H233.76C233.76 7.24 233.76 8.8 233.72 9.4C233.2 27.4 232.72 33.76 231.08 35.88C229.96 37.44 228.84 37.88 227.2 38.12C225.68 38.36 223.24 38.32 220.92 38.2C220.84 36.88 220.2 34.84 219.32 33.56C221.92 33.76 224.32 33.8 225.32 33.8C226.12 33.8 226.56 33.64 227.08 33.08C228.36 31.72 228.88 24.84 229.32 8.16V7.24ZM219.4 1.04L224 2.12C222.44 8.04 219.84 14.12 217.12 17.96C216.24 17.16 214.28 15.8 213.16 15.16C215.84 11.8 218.12 6.36 219.4 1.04ZM217.44 18.76L221.2 16.64C223.16 19.4 225.8 23.24 227.04 25.6L222.96 28.08C221.88 25.64 219.36 21.72 217.44 18.76ZM237.96 12.68H273.72V17.28H237.96V12.68ZM241.32 4.72H270.84V9.28H241.32V4.72ZM248.76 20.64H268.04V25.12H248.76V20.64ZM266.48 20.64H267.36L268.16 20.4L271.84 22.52C268.32 26.24 263.6 30.92 259.48 34.88L255.2 32.36C259.2 28.72 264 23.88 266.48 21.16V20.64ZM245.8 31.56L248.4 27.96C254.52 29.36 263.32 32.28 267.84 34.68L265.04 38.84C260.84 36.44 252.2 33.24 245.8 31.56ZM251.8 0.759997L256.84 1.4C254.8 9.36 252 19.24 250.04 25.12L244.92 25.08C247.16 18.84 250.04 8.64 251.8 0.759997ZM281.08 2.68H285.8V14.48C285.8 21.44 285.2 31.84 281.16 38.4C280.28 37.68 278.16 36.44 276.92 36.04C280.8 29.88 281.08 20.84 281.08 14.48V2.68ZM284.08 2.68H312.04V12.16H284.08V8.52H307.24V6.32H284.08V2.68ZM297.08 14.2H301.4V33.76H297.08V14.2ZM292.28 20.76V22.64H306.32V20.76H292.28ZM288.04 18.08H310.8V25.32H288.04V18.08ZM286.48 26.8H310.72V29.96H290.8V38.6H286.48V26.8ZM308.24 26.8H312.64V34.92C312.64 36.68 312.36 37.52 311.16 38.04C310 38.56 308.36 38.56 306.2 38.56C306 37.52 305.48 36.28 305.08 35.36C306.16 35.44 307.32 35.44 307.72 35.4C308.12 35.4 308.24 35.28 308.24 34.92V26.8ZM291.68 32.4C295.24 32.32 300.4 32.12 305.52 31.96L305.48 34.96C300.64 35.28 295.72 35.56 291.96 35.76L291.68 32.4ZM308 12.4L310.68 15.08C304.76 16.4 295.72 16.92 288.32 16.96C288.24 16.12 287.8 14.8 287.44 14.04C294.6 13.92 303.24 13.44 308 12.4ZM302.8 30.84L305.56 30.2C306.44 31.96 307.32 34.28 307.64 35.72L304.76 36.52C304.44 35.04 303.64 32.68 302.8 30.84ZM317.68 2.56H331.76V6.76H317.68V2.56ZM321.2 11.12H328.2V15H321.2V11.12ZM321.2 19.28H328.2V23.16H321.2V19.28ZM319.32 4.84H323.24V29.96H319.32V4.84ZM326.04 4.8H330.04V38.6H326.04V4.8ZM316.96 29.04C319.84 28.64 324 27.88 328.08 27.12L328.4 31.16C324.76 31.96 321 32.76 317.84 33.4L316.96 29.04ZM330.32 26.28C332.68 25.84 335.92 25.12 339.32 24.32L339.72 27.64C336.96 28.6 334.16 29.56 331.72 30.36L330.32 26.28ZM332.6 4.96L336.28 6.36V26.88H332.6V4.96ZM338.32 8.6H342.04V21.24C342.04 28.04 341.08 34.4 334 38.64C333.44 37.8 332.2 36.4 331.32 35.76C337.56 32.12 338.32 26.88 338.32 21.2V8.6ZM349.72 4.04H353.6V27C353.6 28.56 353.4 29.64 352.48 30.32C351.56 30.96 350.48 31.08 349.04 31.08C348.92 30.04 348.44 28.32 347.92 27.32C348.56 27.36 349.16 27.36 349.4 27.36C349.64 27.36 349.72 27.24 349.72 26.92V4.04ZM339.52 1.08L342.8 3.8C340.64 5.56 338 7.4 336 8.56L333.32 6.12C335.28 4.92 337.96 2.72 339.52 1.08ZM343.76 4.04H352.04V7.88H347.56V38.6H343.76V4.04ZM361.32 12.96H372.88V15.96H365.6V28.4H361.32V12.96ZM370.48 12.96H374.8V24.76C374.8 26.44 374.48 27.2 373.44 27.76C372.4 28.28 370.96 28.32 369.24 28.32C369 27.32 368.48 26.04 368.04 25.16C368.88 25.2 369.72 25.2 370.04 25.2C370.36 25.2 370.48 25.08 370.48 24.76V12.96ZM368.84 8.08H383.04V11.32H368.84V8.08ZM363.8 1.92H377.08V5.56H363.8V1.92ZM368.04 29.16H372.76V33.28C372.76 34.36 373.08 34.48 374.8 34.48C375.56 34.48 378.96 34.48 380 34.48C381.36 34.48 381.68 34.04 381.8 31.36C382.76 32 384.64 32.64 385.92 32.88C385.4 37.2 384.12 38.32 380.48 38.32C379.4 38.32 375.24 38.32 374.2 38.32C369.2 38.32 368.04 37.16 368.04 33.36V29.16ZM372.72 28.6L375.72 26.16C377.56 27.16 379.88 28.76 381.04 30L377.88 32.68C376.84 31.48 374.6 29.72 372.72 28.6ZM384.04 30.52L387.84 28.28C390.4 30.24 393.36 33.2 394.68 35.4L390.56 37.84C389.4 35.72 386.56 32.64 384.04 30.52ZM362.24 28.8L366.4 30.32C365.4 33.36 363.88 36.2 361.04 37.96L357.2 35.44C359.68 33.96 361.44 31.48 362.24 28.8ZM365.2 18.4L366.92 16.48C368.24 17 369.96 17.8 370.84 18.44L369.04 20.56C368.2 19.88 366.52 19 365.2 18.4ZM364.88 22.56L366.64 20.64C367.96 21.16 369.68 22 370.56 22.68L368.76 24.76C367.92 24.08 366.24 23.16 364.88 22.56ZM379.48 12.6L383.44 13.48C382.32 15.92 381 18.2 379.84 20.2C381.6 22.52 383.36 25.28 384.24 27.12L380.52 28.6C379.64 26.4 377.76 23.16 375.68 20.28C377.12 17.76 378.68 14.68 379.48 12.6ZM386.76 12.8L390.8 13.68C389.64 16.08 388.32 18.28 387.08 20.28C388.92 22.44 390.8 25.12 391.76 26.88L388 28.4C387.04 26.24 385 23.12 382.76 20.28C384.28 17.84 385.92 14.8 386.76 12.8ZM374.52 1.92H379.68C382.6 5.6 388.64 8.88 395.08 10.4C393.96 11.24 392.24 13.04 391.44 14.2C385 12.12 379.04 8.48 375.68 4.4H374.52V1.92ZM372.8 2.88L376.44 4.56C372.56 9 366.04 12.8 359.88 14.68C359.2 13.6 357.84 11.88 356.88 10.92C362.92 9.44 369.44 6.36 372.8 2.88ZM399.56 15.04H433.64V19.16H399.56V15.04ZM409.56 9.92L414.52 10.28C413.24 23.92 409.88 32.76 400.92 38C400.32 37 398.6 34.96 397.56 34C405.92 29.84 408.72 21.88 409.56 9.92ZM416.92 17.48H421.68V31.68C421.68 33.2 421.96 33.44 423.6 33.44C424.36 33.44 427.56 33.44 428.44 33.44C429.88 33.44 430.16 32.72 430.36 28.8C431.36 29.56 433.36 30.32 434.6 30.6C434.12 36.12 432.8 37.72 428.92 37.72C427.88 37.72 423.92 37.72 422.96 37.72C418.16 37.72 416.92 36.32 416.92 31.72V17.48ZM417.96 12.04L420.76 9.36C422.84 10.36 425.76 12 427.28 13.12L424.32 16.04C422.96 14.96 420.08 13.2 417.96 12.04ZM427.04 20.4L431.28 22.52C426.36 28.24 419.08 33.04 412.08 36.16C411.44 35.04 410.12 33.44 409 32.4C415.52 29.88 423 25.4 427.04 20.4ZM399.4 4.6H433.44V12.84H428.32V8.76H404.28V12.84H399.4V4.6ZM412.32 2.16L417 0.639999C418.04 2.32 419.24 4.64 419.72 6.16L414.76 7.84C414.4 6.36 413.32 3.96 412.32 2.16ZM456.64 1.04L460.96 1.88C459.52 8.52 456.88 14.88 453.64 18.88C452.88 18.16 451 16.8 450 16.2C453.2 12.68 455.44 6.96 456.64 1.04ZM470.08 7.28H474.6C474.6 7.28 474.56 8.84 474.52 9.44C473.76 27.4 473.04 33.96 471.52 35.96C470.6 37.32 469.72 37.8 468.4 38.04C467.28 38.28 465.6 38.28 463.84 38.2C463.72 36.84 463.24 34.8 462.52 33.48C464 33.64 465.36 33.68 466.12 33.68C466.72 33.68 467.08 33.48 467.56 32.92C468.68 31.52 469.44 25.32 470.08 8.32V7.28ZM457.84 7.28H472.12V11.72H455.64L457.84 7.28ZM460.64 8.72L464.12 10.44C462.52 17.32 459 25.24 454.64 29.32C453.72 28.4 452.2 27.28 450.96 26.6C455.6 22.96 459.12 15.44 460.64 8.72ZM466.2 9.16L469.92 10.88C468 21.28 463.76 32.16 457.16 37.68C456.24 36.72 454.56 35.52 453.24 34.88C460.24 29.88 464.36 19.44 466.2 9.16ZM437.04 22.84C440.96 21.96 446.8 20.32 452.32 18.76L452.96 23C447.92 24.56 442.44 26.2 438.2 27.44L437.04 22.84ZM444.24 1.04H448.64V38.6H444.24V1.04ZM438.96 3.32L442.96 4C442.44 9.28 441.48 14.88 440.04 18.44C439.32 17.88 437.6 16.76 436.64 16.28C437.92 13.08 438.6 8.08 438.96 3.32ZM440.04 8.76H451.96V13.36H439.16L440.04 8.76Z" fill="#5A3F64"/>
</svg>
