<svg width="24" height="24" viewBox="0 0 24 24" fill="none" xmlns="http://www.w3.org/2000/svg">
<path d="M12 0C18.6275 0 24 5.37279 24 12.0006C24 18.6272 18.6275 24 12 24C5.37252 24 0 18.6272 0 12.0006C0 5.37279 5.37252 0 12 0ZM12 1.79973C10.6512 1.7851 9.31297 2.03813 8.06265 2.54418C6.81233 3.05024 5.67478 3.79925 4.71585 4.74789C3.75692 5.69652 2.99565 6.82593 2.47609 8.07076C1.95653 9.31558 1.68902 10.6511 1.68902 12C1.68902 13.3489 1.95653 14.6844 2.47609 15.9292C2.99565 17.1741 3.75692 18.3035 4.71585 19.2521C5.67478 20.2007 6.81233 20.9498 8.06265 21.4558C9.31297 21.9619 10.6512 22.2149 12 22.2003C14.6779 22.1592 17.2322 21.0665 19.1114 19.1582C20.9906 17.2498 22.0439 14.6789 22.0439 12.0006C22.0439 9.32226 20.9906 6.75136 19.1114 4.84302C17.2322 2.93468 14.6779 1.84201 12 1.80093V1.79973ZM7.75525 15.3397C8.26005 15.9828 8.90456 16.5026 9.63999 16.8598C10.3754 17.2169 11.1825 17.402 12 17.401C12.8165 17.4019 13.6226 17.2173 14.3573 16.861C15.092 16.5047 15.7362 15.9862 16.2411 15.3445C16.3891 15.1572 16.6054 15.0364 16.8424 15.0086C17.0795 14.9808 17.3178 15.0484 17.5051 15.1963C17.6924 15.3443 17.8132 15.5606 17.841 15.7976C17.8687 16.0347 17.8012 16.2731 17.6533 16.4603C16.9799 17.3153 16.1212 18.0062 15.1419 18.4809C14.1626 18.9556 13.0883 19.2017 12 19.2007C10.9103 19.2016 9.83471 18.9547 8.85448 18.4787C7.87426 18.0027 7.01509 17.3101 6.34193 16.4531C6.20059 16.2652 6.13844 16.0294 6.16878 15.7962C6.19912 15.563 6.31953 15.3509 6.50425 15.2054C6.68897 15.0599 6.92331 14.9924 7.15712 15.0175C7.39093 15.0426 7.60562 15.1583 7.75525 15.3397ZM8.40072 8.09999C8.60115 8.09431 8.80069 8.1289 8.98752 8.20169C9.17436 8.27448 9.3447 8.38399 9.48848 8.52377C9.63225 8.66354 9.74654 8.83073 9.82458 9.01544C9.90262 9.20015 9.94283 9.39864 9.94283 9.59916C9.94283 9.79968 9.90262 9.99817 9.82458 10.1829C9.74654 10.3676 9.63225 10.5348 9.48848 10.6746C9.3447 10.8143 9.17436 10.9238 8.98752 10.9966C8.80069 11.0694 8.60115 11.104 8.40072 11.0983C8.01047 11.0873 7.63992 10.9245 7.36779 10.6446C7.09567 10.3646 6.94343 9.98958 6.94343 9.59916C6.94343 9.20874 7.09567 8.83371 7.36779 8.55376C7.63992 8.27382 8.01047 8.11103 8.40072 8.09999ZM15.5993 8.09999C15.7997 8.09431 15.9992 8.1289 16.1861 8.20169C16.3729 8.27448 16.5433 8.38399 16.687 8.52377C16.8308 8.66354 16.9451 8.83073 17.0231 9.01544C17.1012 9.20015 17.1414 9.39864 17.1414 9.59916C17.1414 9.79968 17.1012 9.99817 17.0231 10.1829C16.9451 10.3676 16.8308 10.5348 16.687 10.6746C16.5433 10.8143 16.3729 10.9238 16.1861 10.9966C15.9992 11.0694 15.7997 11.104 15.5993 11.0983C15.209 11.0873 14.8385 10.9245 14.5664 10.6446C14.2942 10.3646 14.142 9.98958 14.142 9.59916C14.142 9.20874 14.2942 8.83371 14.5664 8.55376C14.8385 8.27382 15.209 8.11103 15.5993 8.09999Z" fill="black" fill-opacity="0.6"/>
</svg>
