<svg width="753" height="144" viewBox="0 0 753 144" fill="none" xmlns="http://www.w3.org/2000/svg">
<path d="M717.442 70L720.039 81.6785L727.056 86L720.039 90.3215L717.442 102L714.846 90.3215L707.828 86L714.846 81.6785L717.442 70Z" fill="white"/>
<path d="M5.00586 66L6.35789 72.2042L10.0117 74.5L6.35789 76.7958L5.00586 83L3.65382 76.7958L0 74.5L3.65382 72.2042L5.00586 66Z" fill="white"/>
<path d="M535.178 0L539.141 17.1529L549.852 23.5L539.141 29.8471L535.178 47L531.215 29.8471L520.504 23.5L531.215 17.1529L535.178 0Z" fill="white"/>
<path d="M747.433 35L748.937 41.5692L752.999 44L748.937 46.4308L747.433 53L745.93 46.4308L741.867 44L745.93 41.5692L747.433 35Z" fill="white"/>
<g clip-path="url(#clip0_1157_15766)">
<path d="M574.825 65.4499C584.808 47.7011 604.143 37.7775 624.488 38.6586C647.805 39.6684 668.18 54.7219 675.995 76.7142L713.039 180.958C715.461 187.774 710.79 194.991 703.568 195.401C663.988 197.647 554.8 201.397 540.491 175.549C528.738 154.318 555.756 99.3512 574.825 65.4499Z" fill="#FF98F5"/>
<path d="M621.765 30.6706L620.45 47.1227L594.735 48.1096C605.06 36.9978 617.866 31.434 621.074 30.1561C621.431 30.014 621.795 30.2921 621.765 30.6706Z" fill="#FF98F5" stroke="#FF98F5" stroke-width="4.21763" stroke-linecap="round"/>
<path d="M672.075 46.2135L652.453 50.3633C652.049 50.4489 651.9 50.9419 652.189 51.239L668.788 68.3096C669.095 68.6252 669.63 68.4568 669.692 68.0254L672.715 46.805C672.766 46.4425 672.436 46.1371 672.075 46.2135Z" fill="#FF98F5" stroke="#FF98F5" stroke-width="4.21763" stroke-linecap="round"/>
<rect x="2.20439" y="2.01248" width="9.62283" height="13.9909" rx="4.81142" transform="matrix(0.999005 -0.0446097 0.0463161 0.998927 608.583 95.6674)" stroke="black" stroke-width="4.21763"/>
<path d="M611.257 82.7886L573.566 82.7886C575.361 87.8552 578.566 97.9725 590.873 98.4787C603.18 98.9848 608.436 88.182 611.257 82.7886Z" fill="white"/>
<path d="M590.19 95.7882C586.225 94.2057 583.995 86.4624 583.375 82.7886L598.864 82.7886C597.625 87.7812 594.155 97.3708 590.19 95.7882Z" fill="black"/>
<path d="M664.178 81.269L627.262 83.0424C629.056 88.109 632.261 98.2264 644.569 98.7325C656.876 99.2387 661.357 86.6625 664.178 81.269Z" fill="white"/>
<path d="M640.623 96.0409C637.055 94.4583 634.015 86.4617 633.457 82.7879L648.43 82.0278C647.315 87.0204 644.192 97.6234 640.623 96.0409Z" fill="black"/>
</g>
<defs>
<clipPath id="clip0_1157_15766">
<rect width="182" height="121" fill="white" transform="translate(532 23)"/>
</clipPath>
</defs>
</svg>
