<svg width="341" height="233" viewBox="0 0 341 233" fill="none" xmlns="http://www.w3.org/2000/svg">
<path d="M78.9265 91.4974C100.16 53.5379 141.45 32.2969 184.904 34.1872C233.726 36.311 276.58 67.341 293.833 113.063L389.171 365.71C389.171 365.71 43.7918 391.278 6.82672 324.204C-17.8982 279.34 38.7198 163.376 78.9265 91.4974Z" fill="#FF98F5"/>
<path d="M178.28 16.0806L175.492 51.1137L121.248 53.2047C143.191 29.484 170.445 17.6953 176.957 15.1041C177.634 14.8348 178.337 15.3609 178.28 16.0806Z" fill="#FF98F5" stroke="#FF98F5" stroke-width="8" stroke-linecap="round"/>
<path d="M284.559 49.1521L242.805 58.0221C242.039 58.1849 241.755 59.1207 242.301 59.6848L277.622 96.1716C278.203 96.7718 279.22 96.4502 279.337 95.6295L285.769 50.2727C285.867 49.5849 285.242 49.0069 284.559 49.1521Z" fill="#FF98F5" stroke="#FF98F5" stroke-width="8" stroke-linecap="round"/>
<rect x="4.18042" y="3.81651" width="21.1959" height="30.5816" rx="10.5979" transform="matrix(0.998996 -0.0448092 0.0461099 0.998936 150.482 153.952)" stroke="black" stroke-width="8"/>
<path d="M156.101 126.686L76.5957 126.686C80.3817 137.421 87.1424 158.859 113.103 159.931C139.064 161.004 150.152 138.114 156.101 126.686Z" fill="white"/>
<path d="M111.663 154.23C103.299 150.877 98.5941 134.47 97.2871 126.686L129.961 126.686C127.347 137.264 120.028 157.584 111.663 154.23Z" fill="black"/>
<path d="M267.736 123.465L189.864 127.222C193.65 137.958 200.411 159.396 226.372 160.468C252.333 161.541 261.787 134.893 267.736 123.465Z" fill="white"/>
<path d="M218.05 154.767C210.522 151.414 204.109 134.47 202.933 126.686L234.517 125.075C232.165 135.654 225.578 158.121 218.05 154.767Z" fill="black"/>
</svg>
