<svg width="752" height="460" viewBox="0 0 752 460" fill="none" xmlns="http://www.w3.org/2000/svg">
<path d="M9 399C9 425.51 30.4903 447 57 447H704C730.51 447 752 425.51 752 399V67.1558C752 40.4542 730.209 18.8851 703.509 19.1583L494.55 21.2963L513.643 3.00049H498L436.179 21.2963L57.2961 18.9599C30.6712 18.7958 9 40.3337 9 66.959V399Z" fill="#FF98F5" fill-opacity="0.69"/>
<path d="M2 417.997C2 440.088 19.9086 457.997 42 457.997H696C718.091 457.997 736 440.142 736 418.051C736 321.413 736 166.64 736 70.0016C736 47.9102 718.091 30.056 696 30.056H473.595L504.313 1.99658L408.386 30.056H42C19.9086 30.056 2 47.9646 2 70.056V417.997Z" fill="#FFDFFC" stroke="black" stroke-width="4"/>
<rect x="53.9688" y="40.2329" width="4.00701" height="11.9681" rx="2.0035" transform="rotate(90 53.9688 40.2329)" fill="black"/>
<rect x="138.742" y="40.2329" width="4.00701" height="76.7954" rx="2.0035" transform="rotate(90 138.742 40.2329)" fill="black"/>
<rect x="435.969" y="446" width="4" height="11.9472" rx="2" transform="rotate(90 435.969 446)" fill="black"/>
<rect x="520.742" y="446" width="4" height="76.6612" rx="2" transform="rotate(90 520.742 446)" fill="black"/>
</svg>
