<svg width="16" height="16" viewBox="0 0 16 16" fill="none" xmlns="http://www.w3.org/2000/svg">
<g clip-path="url(#clip0_765_6302)">
<path d="M7.59392 2.99965L8.00016 3.5658L8.4064 2.99965C9.1132 2.01463 10.2625 1.37305 11.5637 1.37305C13.7093 1.37305 15.449 3.11271 15.449 5.25882C15.449 5.55981 15.4109 5.85365 15.3433 6.14052L15.3391 6.1581L15.3363 6.17593C15.0543 7.93042 13.9221 9.78627 12.4525 11.3566C11.0434 12.8623 9.38132 14.0444 8.00014 14.5911C6.61878 14.0444 4.95668 12.8623 3.54756 11.3566C2.07793 9.78617 0.945539 7.93017 0.66314 6.17538L0.660384 6.15825L0.656447 6.14136C0.589395 5.85359 0.55127 5.55936 0.55127 5.25882C0.55127 3.11233 2.29093 1.37305 4.43705 1.37305C5.73778 1.37305 6.8871 2.01461 7.59392 2.99965Z" fill="#FF6AF0" stroke="#FF98F5"/>
</g>
<defs>
<clipPath id="clip0_765_6302">
<rect width="16" height="16" fill="white"/>
</clipPath>
</defs>
</svg>
