<svg width="25" height="24" viewBox="0 0 25 24" fill="none" xmlns="http://www.w3.org/2000/svg">
<g id="illustration_state">
<circle id="Ellipse 2757" cx="12.4992" cy="11.9999" r="10.8" fill="#F78D2C"/>
<path id="Union" fill-rule="evenodd" clip-rule="evenodd" d="M11.9008 6.6001C11.7351 6.6001 11.6008 6.73441 11.6008 6.9001V13.5001C11.6008 13.6658 11.7351 13.8001 11.9008 13.8001H13.1008C13.2665 13.8001 13.4008 13.6658 13.4008 13.5001V6.9001C13.4008 6.73441 13.2665 6.6001 13.1008 6.6001H11.9008ZM12.5008 17.4001C13.1635 17.4001 13.7008 16.8628 13.7008 16.2001C13.7008 15.5374 13.1635 15.0001 12.5008 15.0001C11.838 15.0001 11.3008 15.5374 11.3008 16.2001C11.3008 16.8628 11.838 17.4001 12.5008 17.4001Z" fill="white"/>
</g>
</svg>
