<svg width="210" height="65" viewBox="0 0 210 65" fill="none" xmlns="http://www.w3.org/2000/svg">
<g filter="url(#filter0_d_1081_12159)">
<rect x="5" y="3" width="200" height="54" rx="27" fill="white"/>
</g>
<g filter="url(#filter1_d_1081_12159)">
<rect x="11" y="8.78516" width="188" height="42.4286" rx="21.2143" fill="url(#paint0_linear_1081_12159)"/>
</g>
<g opacity="0.3" filter="url(#filter2_f_1081_12159)">
<path fill-rule="evenodd" clip-rule="evenodd" d="M16.1133 34.4355C18.6871 43.6628 27.1542 50.4325 37.2024 50.4325H172.8C182.843 50.4325 191.307 43.6695 193.885 34.4491C189.932 40.1382 183.349 43.8626 175.896 43.8626H34.1124C26.6535 43.8626 20.0659 40.1323 16.1133 34.4355Z" fill="#051176"/>
</g>
<g filter="url(#filter3_f_1081_12159)">
<path fill-rule="evenodd" clip-rule="evenodd" d="M35.25 10.7139C24.0662 10.7139 15 19.7801 15 30.9639C15 35.6446 16.5881 39.9544 19.2548 43.3838C17.8122 40.5189 16.9998 37.2821 16.9998 33.8556C16.9998 22.1392 26.4978 12.6413 38.2141 12.6413H175.786C182.05 12.6413 187.68 15.3564 191.563 19.674C187.927 14.2694 181.754 10.7139 174.75 10.7139H35.25Z" fill="url(#paint1_linear_1081_12159)"/>
</g>
<ellipse opacity="0.3" cx="1.55198" cy="3.28075" rx="1.55198" ry="3.28075" transform="matrix(0.481483 0.876455 -0.964145 0.265376 37.1289 11.4375)" fill="white"/>
<defs>
<filter id="filter0_d_1081_12159" x="0.175258" y="0.587629" width="209.649" height="63.6495" filterUnits="userSpaceOnUse" color-interpolation-filters="sRGB">
<feFlood flood-opacity="0" result="BackgroundImageFix"/>
<feColorMatrix in="SourceAlpha" type="matrix" values="0 0 0 0 0 0 0 0 0 0 0 0 0 0 0 0 0 0 127 0" result="hardAlpha"/>
<feOffset dy="2.41237"/>
<feGaussianBlur stdDeviation="2.41237"/>
<feComposite in2="hardAlpha" operator="out"/>
<feColorMatrix type="matrix" values="0 0 0 0 0 0 0 0 0 0 0 0 0 0 0 0 0 0 0.2 0"/>
<feBlend mode="normal" in2="BackgroundImageFix" result="effect1_dropShadow_1081_12159"/>
<feBlend mode="normal" in="SourceGraphic" in2="effect1_dropShadow_1081_12159" result="shape"/>
</filter>
<filter id="filter1_d_1081_12159" x="6.17526" y="8.78516" width="197.649" height="55.6968" filterUnits="userSpaceOnUse" color-interpolation-filters="sRGB">
<feFlood flood-opacity="0" result="BackgroundImageFix"/>
<feColorMatrix in="SourceAlpha" type="matrix" values="0 0 0 0 0 0 0 0 0 0 0 0 0 0 0 0 0 0 127 0" result="hardAlpha"/>
<feOffset dy="8.4433"/>
<feGaussianBlur stdDeviation="2.41237"/>
<feComposite in2="hardAlpha" operator="out"/>
<feColorMatrix type="matrix" values="0 0 0 0 0 0 0 0 0 0 0 0 0 0 0 0 0 0 0.2 0"/>
<feBlend mode="normal" in2="BackgroundImageFix" result="effect1_dropShadow_1081_12159"/>
<feBlend mode="normal" in="SourceGraphic" in2="effect1_dropShadow_1081_12159" result="shape"/>
</filter>
<filter id="filter2_f_1081_12159" x="6.4638" y="24.7861" width="197.071" height="35.296" filterUnits="userSpaceOnUse" color-interpolation-filters="sRGB">
<feFlood flood-opacity="0" result="BackgroundImageFix"/>
<feBlend mode="normal" in="SourceGraphic" in2="BackgroundImageFix" result="shape"/>
<feGaussianBlur stdDeviation="4.82474" result="effect1_foregroundBlur_1081_12159"/>
</filter>
<filter id="filter3_f_1081_12159" x="7.76289" y="3.47675" width="191.038" height="47.1441" filterUnits="userSpaceOnUse" color-interpolation-filters="sRGB">
<feFlood flood-opacity="0" result="BackgroundImageFix"/>
<feBlend mode="normal" in="SourceGraphic" in2="BackgroundImageFix" result="shape"/>
<feGaussianBlur stdDeviation="3.61856" result="effect1_foregroundBlur_1081_12159"/>
</filter>
<linearGradient id="paint0_linear_1081_12159" x1="105" y1="8.78516" x2="105" y2="51.2137" gradientUnits="userSpaceOnUse">
<stop stop-color="#FF42D5"/>
<stop offset="1" stop-color="#910082"/>
</linearGradient>
<linearGradient id="paint1_linear_1081_12159" x1="19.426" y1="33.1006" x2="194.59" y2="33.1006" gradientUnits="userSpaceOnUse">
<stop stop-color="#FDFEFF"/>
<stop offset="0.6875" stop-color="#FDFEFF" stop-opacity="0.8"/>
<stop offset="1" stop-color="#FDFEFF" stop-opacity="0.1"/>
</linearGradient>
</defs>
</svg>
