<svg width="200" height="200" viewBox="0 0 200 200" fill="none" xmlns="http://www.w3.org/2000/svg">
<circle cx="100" cy="100" r="100" fill="white"/>
<path d="M32.5471 83.8975C32.5471 83.8975 25.2214 72.8464 26.2576 68.1368C27.2939 63.4273 38.6495 77.2267 38.6495 77.2267L32.5471 83.8975Z" fill="#2E142E"/>
<path d="M63.0359 51.4743C63.0359 51.4743 59.7257 38.6912 62.2444 34.5685C64.7774 30.4315 70.9949 47.1083 70.9949 47.1083L63.0359 51.4743Z" fill="#2E142E"/>
<path d="M166.811 89.458C166.811 89.458 176.647 80.5561 176.821 75.7387C176.994 70.9213 162.591 81.4971 162.591 81.4971L166.811 89.458Z" fill="#2E142E"/>
<path d="M128.197 47.5654C128.197 47.5654 131.521 34.7822 128.988 30.6596C126.469 26.5226 120.252 43.1994 120.252 43.1994L128.197 47.5654Z" fill="#2E142E"/>
<mask id="mask0_331_8147" style="mask-type:luminance" maskUnits="userSpaceOnUse" x="22" y="39" width="155" height="131">
<path d="M22 39.2076H176.747V169H22V39.2076Z" fill="white"/>
</mask>
<g mask="url(#mask0_331_8147)">
<path d="M166.969 81.2934C163.702 77.7719 159.629 75.682 155.009 74.7658C152.145 74.1789 149.021 73.2771 146.978 71.0726C144.286 68.1953 145.107 64.6166 143.797 61.1954C140.76 53.2793 134.528 47.1811 126.728 44.4327C123.72 43.3877 120.582 42.8438 117.387 42.8438C111.572 42.8438 106.003 44.6045 101.21 47.7108C97.7702 49.9439 93.4093 50.0727 89.6817 48.3693C86.0404 46.6944 82.0537 45.7783 77.8944 45.7783C76.6998 45.7783 75.5052 45.8499 74.325 46.0073C62.8831 47.4674 53.8591 55.7271 50.4049 66.4918C49.2823 69.999 46.5046 72.7331 42.9209 73.7638C38.2146 75.1237 34.012 77.686 30.6586 81.2934C20.0946 92.7023 21.7065 111.125 34.2423 122.377C37.423 125.24 42.0574 126.099 42.2732 130.35C42.5179 134.96 42.8345 137.479 45.3244 141.773C55.4135 159.08 75.3613 167.812 95.2372 168.428C114.94 169.043 136.658 160.769 149.381 145.638C152.404 142.045 155.239 138.424 155.354 133.729C155.383 132.168 154.548 128.99 155.426 127.688C156.707 125.784 161.485 124.08 163.385 122.377C175.921 111.125 177.533 92.7023 166.969 81.2934Z" fill="#2E142E"/>
</g>
<path d="M116.392 106.185C113.341 99.972 106.375 94.7184 99.2364 94.5037C91.8531 94.2747 84.182 99.8002 81.0732 106.185C77.4176 113.628 69.3003 117.207 63.5289 122.733C61.1254 125.037 59.1105 127.857 59.3551 131.307C59.9164 139.51 69.8184 144.72 77.3312 143.103C83.7646 141.728 88.327 136.747 94.6164 135.115C99.7545 133.784 104.705 136.775 109.066 139.051C113.845 141.542 117.687 144.276 123.444 143.818C129.23 143.375 135.779 140.111 137.434 134.242C139.247 127.843 134.8 123.148 130.065 119.512C125.056 115.661 119.227 111.996 116.392 106.185Z" fill="#F8B7EB"/>
<path d="M127.525 77.7573C124.877 85.0578 117.623 89.1805 111.319 86.976C105.015 84.7715 102.065 77.0558 104.699 69.7553C107.347 62.4547 114.601 58.3177 120.904 60.5222C127.194 62.741 130.159 70.4567 127.525 77.7573Z" fill="#F8B7EB"/>
<path d="M151.699 109.751C146.215 114.661 138.443 115.033 134.327 110.595C130.211 106.143 131.305 98.5708 136.774 93.6608C142.257 88.7365 150.029 88.3643 154.145 92.8162C158.262 97.2538 157.168 104.841 151.699 109.751Z" fill="#F8B7EB"/>
<path d="M66.3689 78.4012C67.3763 86.0883 73.5794 91.6424 80.2143 90.7979C86.8492 89.9533 91.3972 83.0392 90.3897 75.3522C89.3823 67.6508 83.1935 62.111 76.5587 62.9555C69.9238 63.7858 65.3614 70.7142 66.3689 78.4012Z" fill="#F8B7EB"/>
<path d="M45.9474 109.751C51.4164 114.661 59.1883 115.033 63.3045 110.595C67.4208 106.143 66.3269 98.5708 60.8578 93.6608C55.3744 88.7365 47.6025 88.3643 43.4863 92.8162C39.37 97.2538 40.4639 104.841 45.9474 109.751Z" fill="#F8B7EB"/>
<path d="M112.618 109.04C111.868 113.24 105.096 116.259 97.4502 115.822C89.8048 115.385 84.2111 111.635 84.9434 107.455C85.6934 103.254 92.4838 100.216 100.129 100.653C107.757 101.11 113.351 104.859 112.618 109.04Z" fill="#C780C7"/>
<path d="M81.9462 118.305C84.5788 119.435 83.1801 123.78 78.8297 128.038C74.4793 132.297 68.8238 134.837 66.1964 133.72C63.5639 132.589 64.9575 128.232 69.3079 123.973C73.6634 119.728 79.3188 117.188 81.9462 118.305Z" fill="#C780C7"/>
<path d="M132.856 132.894C131.967 135.561 127.393 134.642 122.608 130.851C117.824 127.06 114.663 121.831 115.538 119.17C116.427 116.503 121.015 117.416 125.799 121.207C130.57 125.004 133.731 130.233 132.856 132.894Z" fill="#C780C7"/>
</svg>
