<svg width="40" height="40" viewBox="0 0 40 40" fill="none" xmlns="http://www.w3.org/2000/svg">
<path fill-rule="evenodd" clip-rule="evenodd" d="M20 40C31.0444 40 40 31.0444 40 20C40 8.95556 31.0444 0 20 0C8.95556 0 0 8.95556 0 20C0 31.0444 8.95556 40 20 40Z" fill="black"/>
<path fill-rule="evenodd" clip-rule="evenodd" d="M21.5712 32.6393C20.6693 33.4204 19.3307 33.4204 18.4288 32.6393L12.7418 27.7142C11.0621 26.2595 12.0909 23.5 14.313 23.5L25.687 23.5C27.9091 23.5 28.938 26.2595 27.2582 27.7142L21.5712 32.6393Z" fill="#BEBEBE"/>
<path fill-rule="evenodd" clip-rule="evenodd" d="M6 14C6 11.2386 8.23858 9 11 9H29C31.7614 9 34 11.2386 34 14V23C34 25.7614 31.7614 28 29 28H11C8.23858 28 6 25.7614 6 23V14Z" fill="white"/>
<path fill-rule="evenodd" clip-rule="evenodd" d="M12 17C10.896 17 10 17.896 10 19C10 20.104 10.896 21 12 21C13.104 21 14 20.104 14 19C14 17.896 13.104 17 12 17Z" fill="black"/>
<path fill-rule="evenodd" clip-rule="evenodd" d="M20 17C18.896 17 18 17.896 18 19C18 20.104 18.896 21 20 21C21.104 21 22 20.104 22 19C22 17.896 21.104 17 20 17Z" fill="black"/>
<path fill-rule="evenodd" clip-rule="evenodd" d="M28 17C26.896 17 26 17.896 26 19C26 20.104 26.896 21 28 21C29.104 21 30 20.104 30 19C30 17.896 29.104 17 28 17Z" fill="black"/>
</svg>
