<svg width="752" height="286" viewBox="0 0 752 286" fill="none" xmlns="http://www.w3.org/2000/svg">
<path d="M9.01172 230C9.01172 252.091 26.9203 270 49.0117 270H712C734.091 270 752 252.091 752 230V69.621C752 47.4308 733.936 29.4815 711.747 29.6218L494.553 30.9953L513.646 3H494.553C476.157 11.8232 459.351 19.8837 436.184 30.9953L49.1642 29.5203C27.0134 29.4359 9.01172 47.369 9.01172 69.52V230Z" fill="#FF98F5" fill-opacity="0.69"/>
<path d="M2 244C2 266.091 19.9086 284 42 284H696C718.091 284 736 266.069 736 243.977C736 180.686 736 133.314 736 70.0225C736 47.9311 718.091 30 696 30H473.595L504.313 2L408.386 30H42C19.9086 30 2 47.9086 2 70V244Z" fill="#FFDFFC" stroke="black" stroke-width="4"/>
<rect x="54.8516" y="40" width="4" height="11.9681" rx="2" transform="rotate(90 54.8516 40)" fill="black"/>
<rect x="139.625" y="40" width="4" height="76.7954" rx="2" transform="rotate(90 139.625 40)" fill="black"/>
<rect x="432.844" y="272" width="4" height="11.9681" rx="2" transform="rotate(90 432.844 272)" fill="black"/>
<rect x="517.619" y="272" width="4" height="76.7954" rx="2" transform="rotate(90 517.619 272)" fill="black"/>
</svg>
