<svg width="801" height="287" viewBox="0 0 801 287" fill="none" xmlns="http://www.w3.org/2000/svg">
<path d="M747.603 71L750.197 82.6785L757.206 87L750.197 91.3215L747.603 103L745.009 91.3215L738 87L745.009 82.6785L747.603 71Z" fill="white"/>
<path d="M36 67L37.3505 73.2042L41 75.5L37.3505 77.7958L36 84L34.6495 77.7958L31 75.5L34.6495 73.2042L36 67Z" fill="white"/>
<path d="M565.553 1L569.511 18.1529L580.21 24.5L569.511 30.8471L565.553 48L561.594 30.8471L550.896 24.5L561.594 18.1529L565.553 1Z" fill="white"/>
<path d="M605.163 42.4308C615.128 24.6965 634.44 14.7781 654.763 15.6593C678.049 16.6689 698.393 31.7065 706.189 53.6715L743.207 157.963C745.625 164.778 740.955 171.992 733.735 172.402C694.192 174.648 585.15 178.395 570.859 152.549C559.118 131.315 586.116 76.3305 605.163 42.4308Z" fill="#FF98F5"/>
<path d="M652.036 7.67191L650.722 24.1232L625.037 25.11C635.349 13.9994 648.139 8.43558 651.345 7.15699C651.701 7.01473 652.066 7.29317 652.036 7.67191Z" fill="#FF98F5" stroke="#FF98F5" stroke-width="4.21763" stroke-linecap="round"/>
<path d="M702.289 23.214L682.691 27.3636C682.287 27.4493 682.137 27.9424 682.426 28.2396L699.005 45.3092C699.312 45.6251 699.848 45.4564 699.909 45.0246L702.928 23.8053C702.98 23.4428 702.65 23.1376 702.289 23.214Z" fill="#FF98F5" stroke="#FF98F5" stroke-width="4.21763" stroke-linecap="round"/>
<rect x="2.20427" y="2.01237" width="9.60667" height="13.9909" rx="4.80334" transform="matrix(0.999002 -0.0446618 0.046262 0.998929 638.871 72.668)" stroke="black" stroke-width="4.21763"/>
<path d="M641.541 59.7891L603.895 59.7891C605.687 64.8557 608.888 74.973 621.181 75.4792C633.474 75.9853 638.724 65.1825 641.541 59.7891Z" fill="white"/>
<path d="M620.501 72.7887C616.54 71.2062 614.312 63.4629 613.693 59.7891L629.164 59.7891C627.927 64.7817 624.461 74.3713 620.501 72.7887Z" fill="black"/>
<path d="M694.4 58.2695L657.527 60.0429C659.32 65.1095 662.521 75.2269 674.814 75.733C687.107 76.2392 691.583 63.663 694.4 58.2695Z" fill="white"/>
<path d="M670.874 73.0413C667.309 71.4588 664.273 63.4622 663.716 59.7884L678.671 59.0283C677.557 64.0209 674.438 74.6239 670.874 73.0413Z" fill="black"/>
<path d="M37 220C37 242.091 54.9086 260 77 260H761C783.091 260 801 242.091 801 220V152.347C801 130.197 782.999 112.264 760.849 112.347L536.273 113.196L555.906 96H536.273C517.357 101.42 500.075 106.371 476.253 113.196L77.091 112.287C54.9641 112.237 37 130.16 37 152.287V220Z" fill="#FF98F5" fill-opacity="0.69"/>
<path d="M2 245C2 267.091 19.9086 285 42 285H746C768.091 285 786 267.091 786 245V163C786 140.909 768.091 123 746 123H505.72L538.53 95L436.069 123H42C19.9086 123 2 140.909 2 163V245Z" fill="#FFDFFC" stroke="black" stroke-width="4"/>
<rect x="83" y="133" width="4" height="12" rx="2" transform="rotate(90 83 133)" fill="black"/>
<rect x="168" y="133" width="4" height="77" rx="2" transform="rotate(90 168 133)" fill="black"/>
<rect x="462" y="273" width="4" height="12" rx="2" transform="rotate(90 462 273)" fill="black"/>
<rect x="547" y="273" width="4" height="77" rx="2" transform="rotate(90 547 273)" fill="black"/>
<path d="M777.56 36L779.061 42.5692L783.119 45L779.061 47.4308L777.56 54L776.058 47.4308L772 45L776.058 42.5692L777.56 36Z" fill="white"/>
</svg>
