<svg width="40" height="40" viewBox="0 0 40 40" fill="none" xmlns="http://www.w3.org/2000/svg">
<path fill-rule="evenodd" clip-rule="evenodd" d="M20 40C31.0444 40 40 31.0444 40 20C40 8.95556 31.0444 0 20 0C8.95556 0 0 8.95556 0 20C0 31.0444 8.95556 40 20 40Z" fill="black"/>
<path fill-rule="evenodd" clip-rule="evenodd" d="M8 20C8 17.2386 10.2386 15 13 15H27C29.7614 15 32 17.2386 32 20V27C32 29.7614 29.7614 32 27 32H13C10.2386 32 8 29.7614 8 27V20Z" fill="white"/>
<path d="M17 25C17 24.4477 17.4477 24 18 24H22C22.5523 24 23 24.4477 23 25V33H17V25Z" fill="black" stroke="black" stroke-width="2"/>
<path fill-rule="evenodd" clip-rule="evenodd" d="M19.3453 4.56695C19.7211 4.24152 20.2789 4.24152 20.6547 4.56695L35.2929 17.2441C35.9928 17.8502 35.5642 19 34.6383 19L5.36172 19C4.43583 19 4.00716 17.8502 4.70706 17.2441L19.3453 4.56695Z" fill="#BEBEBE"/>
</svg>
