<svg width="24" height="24" viewBox="0 0 24 24" fill="none" xmlns="http://www.w3.org/2000/svg">
<path d="M13.0048 12.2423L3.73606 13.7877C3.6295 13.8055 3.5295 13.851 3.44612 13.9197C3.36273 13.9884 3.29891 14.0778 3.26106 14.179L0.0652326 22.739C-0.239952 23.5265 0.583308 24.277 1.33889 23.8993L23.4894 12.8256C23.6428 12.749 23.7718 12.6311 23.862 12.4853C23.9522 12.3395 24 12.1714 24 11.9999C24 11.8285 23.9522 11.6604 23.862 11.5146C23.7718 11.3688 23.6428 11.2509 23.4894 11.1743L1.33889 0.10061C0.583308 -0.277127 -0.239952 0.474656 0.0652326 1.26089L3.26229 9.82088C3.29996 9.92229 3.36371 10.012 3.4471 10.0809C3.5305 10.1498 3.63059 10.1955 3.73729 10.2134L13.006 11.7576C13.0631 11.7675 13.1148 11.7973 13.152 11.8417C13.1893 11.886 13.2097 11.942 13.2097 11.9999C13.2097 12.0579 13.1893 12.1139 13.152 12.1582C13.1148 12.2026 13.0631 12.2323 13.006 12.2423H13.0048Z" fill="black"/>
</svg>
