<svg width="648" height="720" viewBox="0 0 648 720" fill="none" xmlns="http://www.w3.org/2000/svg">
<g clip-path="url(#clip0_529_5343)">
<path d="M91.2649 375.964C110.623 335.483 150.278 309.487 194.954 305.295C261.178 299.081 322.061 342.03 338.42 406.502L428.499 761.5C428.499 761.5 -58.2761 1036.52 -44.0006 814.5C-33.9168 657.667 45.4978 471.67 91.2649 375.964Z" fill="#75CDFF"/>
<path d="M306.509 298.185L267 315L309.292 349L309.292 300.025C309.292 298.591 307.828 297.623 306.509 298.185Z" fill="#75CDFF" stroke="#75CDFF" stroke-width="8" stroke-linecap="round"/>
<path d="M105.443 298.074L145.5 319.5L102.5 354L102.5 299.838C102.5 298.327 104.111 297.362 105.443 298.074Z" fill="#75CDFF" stroke="#75CDFF" stroke-width="8" stroke-linecap="round"/>
<rect x="141" y="389.198" width="43" height="20" rx="10" fill="black"/>
<rect x="211" y="389.198" width="43" height="20" rx="10" fill="black"/>
<path d="M173 448.472C173 448.472 182.868 449.211 189.263 442.815C195.659 436.42 195.274 426.198 195.274 426.198" stroke="black" stroke-width="8" stroke-linecap="round"/>
<path d="M217.616 448.511C217.616 448.511 207.748 449.249 201.353 442.854C194.957 436.458 195.342 426.237 195.342 426.237" stroke="black" stroke-width="8" stroke-linecap="round"/>
<path d="M475 771.65C514.167 789.15 599.8 810.85 629 757.65C665.5 691.15 674 617 754.5 650.65" stroke="black" stroke-width="41" stroke-linecap="round"/>
<path d="M310.863 452.547C326.654 430.556 351.195 417.126 378.038 413.6C432.541 406.44 483.64 441.629 496.39 495.102L536.507 663.36C550.108 720.407 520.953 779.255 464.881 796.439C371.16 825.161 237.905 849.847 208.928 770.527C170.904 666.442 263.737 518.175 310.863 452.547Z" fill="#FFFFEB"/>
<path d="M361.579 490V490C364.516 493.785 369.038 496 373.828 496L376.33 496C381.121 496 385.642 493.785 388.579 490V490" stroke="black" stroke-width="8" stroke-linecap="round"/>
<path d="M481.797 418.026C471.974 418.847 446.339 421.369 437.123 425.987C425.623 431.75 470.123 475.487 470.123 458.987C470.123 446.191 479.49 428.424 483.695 421.093C484.508 419.676 483.426 417.89 481.797 418.026Z" fill="#FFFFEB" stroke="#FFFFEB" stroke-width="8" stroke-linecap="round"/>
<path d="M328.202 402.624L356.126 419.139L321.969 442.677L325.191 404.178C325.314 402.708 326.932 401.872 328.202 402.624Z" fill="#FFFFEB" stroke="#FFFFEB" stroke-width="8" stroke-linecap="round"/>
<rect x="346.58" y="457" width="15" height="21" rx="7.5" fill="black"/>
<rect x="388.58" y="457" width="15" height="21" rx="7.5" fill="black"/>
<line y1="-0.5" x2="105.304" y2="-0.5" transform="matrix(0.949629 0.313377 0.313377 -0.949629 444 493)" stroke="black"/>
<line x1="444.045" y1="481.502" x2="511.045" y2="487.502" stroke="black"/>
<line x1="443.857" y1="471.521" x2="537.857" y2="443.521" stroke="black"/>
<line x1="317.157" y1="488.475" x2="217.157" y2="521.475" stroke="black"/>
<line x1="317.008" y1="477.5" x2="257.008" y2="478.5" stroke="black"/>
<line x1="316.839" y1="467.473" x2="219.839" y2="434.473" stroke="black"/>
<path d="M433.412 567.734C452.729 532.737 490.643 513.087 530.577 514.85C575.293 516.823 614.487 545.363 630.092 587.314L718 823.636C718 823.636 400.881 847.45 366.941 784.975C344.184 743.085 396.479 634.646 433.412 567.734Z" fill="#FF98F5"/>
<path d="M524.356 498.101L521.806 530.609L472 532.556C492.026 510.595 516.871 499.615 523.041 497.113C523.715 496.839 524.413 497.376 524.356 498.101Z" fill="#FF98F5" stroke="#FF98F5" stroke-width="8" stroke-linecap="round"/>
<path d="M621.844 528.805L583.745 537.015C582.982 537.18 582.693 538.118 583.233 538.683L615.462 572.457C616.039 573.062 617.06 572.733 617.176 571.905L623.045 529.921C623.141 529.233 622.523 528.659 621.844 528.805Z" fill="#FF98F5" stroke="#FF98F5" stroke-width="8" stroke-linecap="round"/>
<rect x="503.178" y="630.033" width="18.8077" height="27.9351" rx="9.40385" transform="rotate(-2.60527 503.178 630.033)" stroke="black" stroke-width="8"/>
<path d="M501 609H428C431.476 618.999 437.684 638.967 461.52 639.966C485.357 640.965 495.537 619.645 501 609Z" fill="white"/>
<path d="M460.2 634.656C452.52 631.533 448.2 616.251 447 609H477C474.6 618.853 467.88 637.78 460.2 634.656Z" fill="black"/>
<path d="M603.5 606L532 609.5C535.476 619.499 541.684 639.467 565.52 640.466C589.357 641.465 598.037 616.645 603.5 606Z" fill="white"/>
<path d="M557.88 635.156C550.968 632.033 545.08 616.251 544 609L573 607.5C570.84 617.353 564.792 638.28 557.88 635.156Z" fill="black"/>
<path d="M77 150L83.2121 177.372L100 187.5L83.2121 197.628L77 225L70.7879 197.628L54 187.5L70.7879 177.372L77 150Z" fill="#C882CA"/>
<path d="M395 321L401.212 348.372L418 358.5L401.212 368.628L395 396L388.788 368.628L372 358.5L388.788 348.372L395 321Z" fill="#FFBEF5"/>
<path d="M517.5 94L526.818 134.875L552 150L526.818 165.125L517.5 206L508.182 165.125L483 150L508.182 134.875L517.5 94Z" fill="#FFBEF5"/>
<path d="M610 291L613.511 306.328L623 312L613.511 317.672L610 333L606.489 317.672L597 312L606.489 306.328L610 291Z" fill="#D075D2"/>
<path d="M251.5 372L253.796 381.854L260 385.5L253.796 389.146L251.5 399L249.204 389.146L243 385.5L249.204 381.854L251.5 372Z" fill="white"/>
<path d="M151 200.126C177.5 161.5 247.084 126.251 325 170.5C406 216.5 335 272 325 259.5C315 247 332.233 189.559 392 204.5C487.5 228.374 560 386 574.5 461.5M574.5 461.5L583 443.5M574.5 461.5L558.5 449.5" stroke="#FF98F5" stroke-width="8" stroke-linecap="round"/>
</g>
<defs>
<clipPath id="clip0_529_5343">
<rect width="648" height="720" fill="white"/>
</clipPath>
</defs>
</svg>
