<svg width="24" height="24" viewBox="0 0 24 24" fill="none" xmlns="http://www.w3.org/2000/svg">
<g id="illustration_state">
<circle id="Ellipse 2757" cx="11.9992" cy="11.9999" r="10.8" fill="#2F80ED"/>
<path id="Union" fill-rule="evenodd" clip-rule="evenodd" d="M12.0008 9.0001C12.6635 9.0001 13.2008 8.46284 13.2008 7.8001C13.2008 7.13736 12.6635 6.6001 12.0008 6.6001C11.338 6.6001 10.8008 7.13736 10.8008 7.8001C10.8008 8.46284 11.338 9.0001 12.0008 9.0001ZM11.4007 10.2001C11.235 10.2001 11.1007 10.3344 11.1007 10.5001V17.1001C11.1007 17.2658 11.235 17.4001 11.4007 17.4001H12.6007C12.7664 17.4001 12.9007 17.2658 12.9007 17.1001V10.5001C12.9007 10.3344 12.7664 10.2001 12.6007 10.2001H11.4007Z" fill="white"/>
</g>
</svg>
